<svg class='services__icon' viewBox="0 0 132 132" fill="none" xmlns="http://www.w3.org/2000/svg">
<circle cx="66" cy="66" r="65" stroke="#435B97" stroke-width="2" />
<path d="M67.159 77.2238L64.2994 70.7494C64.1358 70.3769 63.8678 70.0602 63.5281 69.8376C63.1885 69.6151 62.7916 69.4962 62.3859 69.4956C62.0943 69.4951 61.8059 69.5566 61.5398 69.6761L58.8889 70.8534C58.3933 71.075 58.0028 71.4809 57.7998 71.9856C57.5967 72.4903 57.5969 73.0545 57.8003 73.5591L55.3357 74.6674L54.6595 73.0036L54.6433 72.9648C54.3273 72.3024 53.8258 71.7467 53.2002 71.3654C52.5746 70.9842 51.8519 70.7939 51.1203 70.8178C50.3887 70.8418 49.6798 71.0789 49.0803 71.5002C48.4808 71.9215 48.0166 72.5088 47.7442 73.1904C47.3255 73.0327 46.8818 72.952 46.4344 72.9522C45.6753 72.9555 44.9349 73.1889 44.3103 73.6219C43.6858 74.0548 43.2064 74.6671 42.9349 75.3783C42.5162 75.2201 42.0725 75.139 41.6251 75.1388C40.8659 75.1425 40.1255 75.3763 39.501 75.8094C38.8766 76.2425 38.3971 76.8548 38.1256 77.5661C37.7061 77.4078 37.2615 77.3267 36.8133 77.3266C36.1936 77.3359 35.5858 77.4982 35.0435 77.7991C34.5012 78.1 34.0412 78.5304 33.7041 79.0521C33.3671 79.5738 33.1633 80.1707 33.111 80.7902C33.0586 81.4096 33.1591 82.0325 33.4038 82.6037L34.0649 84.2336L28.6494 86.6697C28.3842 86.7887 28.1768 87.0083 28.0727 87.2805C27.9687 87.5527 27.9765 87.8552 28.0945 88.1215L30.1305 92.7329C30.2512 92.9988 30.4712 93.2064 30.7431 93.311C31.015 93.4156 31.3171 93.4088 31.584 93.2921L36.7933 90.9488L37.8931 93.6531L37.9094 93.692C38.5499 95.3061 39.5858 96.7322 40.9212 97.8384C42.2566 98.9447 43.8484 99.6953 45.5495 100.021L46.6744 102.373C46.7638 102.561 46.9043 102.719 47.0797 102.83C47.2551 102.941 47.4582 103 47.6655 103H61.4136C61.5975 102.996 61.7775 102.947 61.9377 102.856C62.0979 102.765 62.2332 102.636 62.3314 102.48C62.4297 102.324 62.488 102.146 62.501 101.962C62.514 101.778 62.4813 101.594 62.4059 101.425L58.8627 93.9441C59.7293 92.4498 60.2087 90.7613 60.2569 89.0332C60.3052 87.3051 59.9208 85.5924 59.1389 84.0518L58.0553 81.3863L60.7174 80.189C60.9577 80.6712 61.3739 81.0421 61.8797 81.2247C62.3854 81.4072 62.9417 81.3874 63.4333 81.1694L66.0841 79.9909C66.5924 79.7669 66.9912 79.3496 67.1928 78.8306C67.3944 78.3117 67.3822 77.7337 67.159 77.2238ZM31.704 90.8297L30.5567 88.2331L34.9048 86.2772L35.9759 88.9102L31.704 90.8297ZM59.6851 100.797H48.3654L47.2831 98.5253C47.1961 98.3426 47.0606 98.1874 46.8915 98.0768C46.7224 97.9662 46.5262 97.9045 46.3244 97.8984C46.2832 97.8984 42.1638 97.7166 39.9303 92.8019L35.441 81.7587L35.4247 81.7198C35.3369 81.5346 35.2867 81.3336 35.2771 81.1287C35.2675 80.9238 35.2987 80.7191 35.3688 80.5264C35.439 80.3337 35.5467 80.1569 35.6857 80.0064C35.8247 79.8559 35.9921 79.7347 36.1783 79.6499C36.3645 79.5651 36.5656 79.5183 36.77 79.5123C36.9744 79.5063 37.178 79.5411 37.3688 79.6149C37.5596 79.6886 37.7339 79.7998 37.8814 79.9418C38.0289 80.0839 38.1468 80.254 38.2281 80.4422C38.3316 80.6719 38.5104 80.8591 38.7348 80.9725C38.9592 81.086 39.2156 81.1188 39.4612 81.0656C39.7068 81.0124 39.9268 80.8762 40.0845 80.68C40.2422 80.4837 40.3281 80.2392 40.3278 79.9871C40.3278 79.0117 39.7429 78.0576 40.9952 77.4871C41.3676 77.3216 41.7899 77.3093 42.1711 77.4531C42.5524 77.5968 42.8621 77.8851 43.0337 78.2557C43.1376 78.4847 43.3166 78.6712 43.5408 78.7841C43.7651 78.8969 44.0211 78.9294 44.2663 78.8761C44.5115 78.8228 44.7311 78.6868 44.8886 78.4909C45.0461 78.2951 45.132 78.051 45.1321 77.7993C45.1321 77.2025 44.7572 76.7963 44.9946 76.1694C45.1062 75.8879 45.2972 75.6452 45.5442 75.471C45.7912 75.2968 46.0834 75.1986 46.3852 75.1885C46.687 75.1784 46.9852 75.2567 47.2432 75.414C47.5012 75.5713 47.7079 75.8007 47.838 76.0741C47.9584 76.34 48.1792 76.5471 48.4517 76.6498C48.7243 76.7525 49.0263 76.7425 49.2915 76.622C49.5543 76.4986 49.7587 76.2771 49.8609 76.0046C49.9632 75.7322 49.9553 75.4305 49.8389 75.1639C49.6888 74.7953 49.6863 74.3829 49.8318 74.0125C49.9773 73.6421 50.2596 73.3422 50.62 73.1754C50.9803 73.0087 51.391 72.9878 51.7663 73.1172C52.1416 73.2466 52.4527 73.5162 52.6348 73.87L57.1229 84.9106L57.1392 84.9508C59.3464 89.8279 56.8642 93.025 56.7642 93.1529C56.6313 93.3145 56.5472 93.5108 56.5217 93.7187C56.4963 93.9266 56.5305 94.1374 56.6205 94.3264L59.6851 100.797ZM57.2354 79.3464L56.1656 76.7135L58.6864 75.5851L59.8338 78.1829L57.2354 79.3464ZM62.6496 79.1132L61.0611 75.5149L60.2487 73.6756L59.8738 72.8306L62.3322 71.7386L65.1055 78.0199L62.6496 79.1132Z" fill="#435B97"/>
<path d="M102.422 67.8025L97.1935 64.9853C96.9368 64.847 96.6358 64.8166 96.3568 64.9009C96.0777 64.9852 95.8435 65.1772 95.7056 65.4348C95.5677 65.6923 95.5375 65.9942 95.6215 66.2741C95.7055 66.5541 95.897 66.789 96.1537 66.9273L100.803 69.4349V82.751L76.2727 67.5806C76.1205 67.4866 75.9478 67.4312 75.7694 67.4192C75.5911 67.4072 75.4125 67.4389 75.2491 67.5116C75.2116 67.5279 71.4109 69.1616 67.2678 65.6874L66.3329 64.9025C66.3779 64.9402 66.8241 64.6167 66.8678 64.5854C67.3975 64.2045 67.8199 63.6925 68.0939 63.0993C68.3679 62.5061 68.4841 61.8518 68.4313 61.2002C68.8644 61.1593 69.2871 61.0439 69.6812 60.8592C69.7412 60.8303 69.9561 60.6774 70.0011 60.6912L70.0736 60.7113C70.7391 60.9038 71.446 60.8983 72.1085 60.6956C72.771 60.4928 73.3605 60.1015 73.8056 59.5691L80.2059 51.8886C81.1285 52.7416 81.829 53.808 82.2466 54.9948C82.6642 56.1816 82.7862 57.4528 82.6018 58.6977C82.5441 58.935 82.5665 59.1847 82.6656 59.4078C82.7646 59.6309 82.9348 59.8146 83.1493 59.9302L92.1192 64.7621C92.2463 64.8305 92.3855 64.8732 92.529 64.8876C92.6724 64.9021 92.8173 64.888 92.9554 64.8463C93.0934 64.8045 93.2219 64.7359 93.3335 64.6444C93.4452 64.5528 93.5377 64.4401 93.6059 64.3127C93.6741 64.1852 93.7166 64.0456 93.731 63.9017C93.7454 63.7578 93.7314 63.6124 93.6898 63.4739C93.6482 63.3354 93.5798 63.2065 93.4885 63.0945C93.3972 62.9826 93.2849 62.8897 93.1578 62.8213L84.8628 58.3517C84.9692 56.6477 84.6547 54.9437 83.9472 53.3909C83.2398 51.8381 82.1611 50.4844 80.8071 49.4501L78.6149 47.612L82.3531 43.422L85.194 46.2718C85.9168 46.9967 86.8971 47.404 87.9192 47.404C88.9413 47.404 89.9216 46.9967 90.6445 46.2718L91.5893 45.3239C92.312 44.5988 92.718 43.6154 92.718 42.5901C92.718 41.5648 92.312 40.5814 91.5893 39.8563L84.7528 32.9983C82.5517 30.7777 79.8302 29.1469 76.8377 28.2553C75.2991 27.9469 73.8381 27.6886 72.6083 28.9236C72.2989 29.2336 72.0534 29.6016 71.886 30.0068C71.7185 30.412 71.6323 30.8464 71.6323 31.285C71.6323 31.7236 71.7185 32.158 71.886 32.5632C72.0534 32.9684 72.2989 33.3365 72.6083 33.6465L77.2413 38.2941L73.0732 42.9656L70.496 40.7954C69.732 40.1664 68.7523 39.8634 67.7679 39.9516C66.7834 40.0397 65.8727 40.512 65.2318 41.2668C64.9174 41.6437 64.6803 42.0791 64.534 42.5481C64.3877 43.0172 64.3352 43.5105 64.3794 44C63.394 44.0888 62.4841 44.5661 61.8491 45.3272C61.2141 46.0883 60.906 47.071 60.9924 48.0596C60.0073 48.1488 59.0978 48.6265 58.4636 49.388C57.8295 50.1494 57.5226 51.1322 57.6104 52.1205C56.8748 52.187 56.1753 52.4708 55.6004 52.9359C55.0255 53.401 54.601 54.0267 54.3804 54.7338C54.1599 55.4409 54.1532 56.1977 54.3613 56.9086C54.5693 57.6195 54.9828 58.2526 55.5494 58.7278L57.5241 60.384L54.5058 63.7692C54.3185 63.9792 54.2185 64.2532 54.2265 64.5349C54.2344 64.8166 54.3495 65.0846 54.5483 65.2837L58.1041 68.8506C58.206 68.9529 58.327 69.034 58.4601 69.0893C58.5933 69.1446 58.7361 69.173 58.8802 69.1728H58.9102C59.0596 69.1685 59.2066 69.1337 59.3422 69.0706C59.4778 69.0074 59.5991 68.9172 59.6988 68.8055L63.0646 65.0329L65.8592 67.3775C67.1445 68.5646 68.7101 69.4038 70.4083 69.8157C72.1065 70.2277 73.8813 70.1989 75.5653 69.732L101.325 85.6634C101.492 85.7663 101.683 85.8228 101.878 85.8269C102.074 85.8311 102.267 85.7828 102.438 85.6871C102.608 85.5914 102.75 85.4517 102.849 85.2825C102.948 85.1132 103 84.9206 103 84.7244V68.7766C103.001 68.5769 102.947 68.3807 102.846 68.2091C102.744 68.0375 102.597 67.8969 102.422 67.8025ZM72.1183 58.1486C71.9888 58.3014 71.8285 58.425 71.648 58.5115C71.4675 58.5979 71.2709 58.6451 71.071 58.6501C70.8328 58.6482 70.599 58.5852 70.3919 58.4672C70.1848 58.3492 70.0112 58.18 69.8876 57.9758C69.764 57.7715 69.6945 57.539 69.6858 57.3002C69.677 57.0614 69.7292 56.8243 69.8374 56.6115C70.0086 56.303 75.2241 50.1033 75.2241 50.1033C75.5467 49.7245 76.0043 49.4875 76.4989 49.4432C76.9935 49.3989 77.4857 49.5508 77.87 49.8663L78.5512 50.4367L72.1183 58.1486ZM74.1605 32.0805C73.9501 31.8666 73.8321 31.5781 73.8321 31.2775C73.8321 30.9769 73.9501 30.6884 74.1605 30.4745C74.7467 29.8865 75.7091 30.2689 76.4102 30.4093C78.9722 31.2209 81.3014 32.6401 83.2005 34.5467L90.037 41.4047C90.3444 41.7182 90.5167 42.1403 90.5167 42.5801C90.5167 43.0198 90.3444 43.442 90.037 43.7555L89.0934 44.7033C88.7799 45.0103 88.3592 45.1821 87.9211 45.1821C87.483 45.1821 87.0623 45.0103 86.7488 44.7033L74.1605 32.0805ZM78.7961 39.8538L80.7958 41.8598L76.9214 46.1966L74.7542 44.3786L78.7961 39.8538ZM66.9178 42.676C67.1821 42.3656 67.5572 42.1714 67.9625 42.1351C68.3679 42.0987 68.7713 42.2232 69.0862 42.4817L75.0979 47.523L75.0354 47.5506C74.1617 48.0183 73.4119 48.6884 72.8482 49.5052L72.772 49.598L67.1115 44.8512C66.7987 44.5883 66.6026 44.2116 66.5662 43.8038C66.5299 43.396 66.6564 42.9904 66.9178 42.676ZM63.5333 46.7369C63.7973 46.4256 64.1726 46.2307 64.5785 46.1944C64.9843 46.158 65.3882 46.2831 65.703 46.5426L71.3622 51.2893L69.3875 53.6589L63.7283 48.9122C63.4203 48.647 63.2276 48.2717 63.1912 47.8661C63.1548 47.4606 63.2775 47.0568 63.5333 46.7407V46.7369ZM60.15 50.7978C60.4138 50.4865 60.7889 50.2917 61.1946 50.2554C61.6002 50.219 62.0039 50.3441 62.3185 50.6035L68.0052 55.3778V55.3866C67.7588 55.7923 67.5952 56.243 67.5238 56.7126C67.4523 57.1821 67.4745 57.6613 67.589 58.1223C67.6658 58.4277 67.78 58.7225 67.9289 58.9999L67.8727 58.9936C67.5921 58.952 67.3281 58.8345 67.109 58.6538L60.3462 52.9819C60.1903 52.8519 60.0614 52.6923 59.9671 52.5122C59.8728 52.3322 59.8149 52.1352 59.7966 51.9326C59.7784 51.73 59.8002 51.5258 59.8609 51.3318C59.9215 51.1377 60.0198 50.9575 60.15 50.8016V50.7978ZM58.8365 66.461L56.8367 64.455L59.2114 61.7945L61.3811 63.6137L58.8365 66.461ZM66.0654 62.2459C65.9494 62.4491 65.7898 62.6239 65.5982 62.7578C65.4067 62.8917 65.1879 62.9813 64.9576 63.0202C64.7274 63.059 64.4914 63.0462 64.2667 62.9825C64.042 62.9189 63.8342 62.806 63.6583 62.6521L56.9592 57.034C56.6458 56.7713 56.4493 56.3945 56.4128 55.9864C56.3764 55.5784 56.503 55.1725 56.7649 54.8581C57.0267 54.5437 57.4024 54.3466 57.8092 54.31C58.2159 54.2734 58.6205 54.4005 58.9339 54.6631L65.6967 60.3351C65.9629 60.5668 66.1438 60.8814 66.2107 61.2285C66.2775 61.5756 66.2264 61.9351 66.0654 62.2496V62.2459Z" fill="#435B97"/>
</svg>
