<svg class='services__icon' viewBox="0 0 132 132" fill="none" xmlns="http://www.w3.org/2000/svg">
<circle cx="66" cy="66" r="65" stroke="#435B97" stroke-width="2"/>
<path d="M88.6417 78.9793H78.2521C80.8021 75.9715 82.2003 72.1552 82.1969 68.2116V68.1478H83.7644C85.0566 68.1455 86.2951 67.6311 87.2089 66.7172C88.1226 65.8034 88.6369 64.5646 88.6392 63.2722V59.5517C88.6373 58.2592 88.123 57.0202 87.2092 56.1063C86.2955 55.1923 85.0567 54.678 83.7644 54.676H82.1969V52.9821C83.5412 52.6184 84.7286 51.8225 85.5757 50.717C86.4228 49.6115 86.8826 48.2578 86.8843 46.865V44.661C86.8806 41.4857 85.6179 38.4415 83.373 36.1962C81.1281 33.951 78.0844 32.688 74.9097 32.6844H69.3074V31.8093C69.3074 30.799 68.9061 29.8301 68.1918 29.1157C67.4776 28.4013 66.5089 28 65.4988 28C64.4886 28 63.5199 28.4013 62.8056 29.1157C62.0914 29.8301 61.6901 30.799 61.6901 31.8093V32.6844H56.0878C52.913 32.688 49.8694 33.951 47.6245 36.1962C45.3796 38.4415 44.1168 41.4857 44.1132 44.661V46.8588C44.1148 48.2516 44.5747 49.6052 45.4218 50.7107C46.269 51.8162 47.4562 52.6122 48.8006 52.9758V54.6698H47.2331C45.9409 54.6721 44.7023 55.1865 43.7886 56.1004C42.8749 57.0143 42.3606 58.2531 42.3583 59.5455V63.2659C42.3609 64.5582 42.8753 65.7969 43.789 66.7106C44.7026 67.6244 45.941 68.139 47.2331 68.1416H48.8006V68.2054C48.7972 72.1489 50.1954 75.9653 52.7454 78.9731H42.3545C38.5488 78.9784 34.9006 80.4928 32.2097 83.1844C29.5188 85.8759 28.005 89.5249 28 93.3312V101.535C28 101.727 28.0379 101.918 28.1115 102.095C28.1851 102.273 28.293 102.435 28.4291 102.571C28.5651 102.707 28.7266 102.815 28.9043 102.888C29.0821 102.962 29.2726 103 29.4649 103H101.535C101.727 103 101.918 102.962 102.096 102.888C102.273 102.815 102.435 102.707 102.571 102.571C102.707 102.435 102.815 102.273 102.888 102.095C102.962 101.918 103 101.727 103 101.535V93.3312C102.993 89.5254 101.478 85.8774 98.7867 83.1871C96.0952 80.4968 92.4469 78.9836 88.6417 78.9793ZM48.8006 65.2174H47.2331C46.7164 65.2171 46.2209 65.0117 45.8555 64.6462C45.4902 64.2808 45.2847 63.7853 45.2844 63.2684V59.5479C45.2851 59.0312 45.4906 58.5359 45.8559 58.1705C46.2212 57.8052 46.7165 57.5996 47.2331 57.5989H48.8006V65.2174ZM41.7683 100.076H30.9299V93.3375C30.9332 90.4093 32.0589 87.5939 34.0751 85.4708C36.0913 83.3477 38.8447 82.0786 41.7683 81.9247V100.076ZM83.7669 57.5989C84.2835 57.5996 84.7788 57.8052 85.1441 58.1705C85.5094 58.5359 85.7149 59.0312 85.7156 59.5479V63.2684C85.7152 63.7853 85.5098 64.2808 85.1444 64.6462C84.7791 65.0117 84.2836 65.2171 83.7669 65.2174H82.1994V57.5989H83.7669ZM64.6225 31.8055C64.6225 31.5724 64.7151 31.3489 64.8799 31.1841C65.0447 31.0192 65.2682 30.9266 65.5012 30.9266C65.7343 30.9266 65.9578 31.0192 66.1226 31.1841C66.2874 31.3489 66.38 31.5724 66.38 31.8055V32.6806H64.6225V31.8055ZM47.0793 47.3376H52.5492C52.9377 47.3376 53.3103 47.1832 53.5851 46.9084C53.8598 46.6336 54.0141 46.261 54.0141 45.8724C54.0141 45.4838 53.8598 45.1111 53.5851 44.8363C53.3103 44.5615 52.9377 44.4072 52.5492 44.4072H47.0494C47.1182 42.054 48.1004 39.8201 49.7878 38.1789C51.4753 36.5376 53.7353 35.618 56.0891 35.6148H74.9109C77.3091 35.6174 79.6082 36.5713 81.304 38.2672C82.9999 39.9631 83.9539 42.2625 83.9569 44.661V46.8588C83.9556 47.7619 83.5963 48.6276 82.9578 49.2662C82.3193 49.9048 81.4537 50.2641 80.5508 50.2655H50.448C49.628 50.2644 48.8358 49.9678 48.2167 49.4301C47.5975 48.8923 47.1929 48.1495 47.0769 47.3376H47.0793ZM51.7317 68.2154V53.1946H79.2696V68.2116C79.2869 70.0311 78.9435 71.836 78.2593 73.522C77.5752 75.208 76.5637 76.7417 75.2834 78.0345C74.0032 79.3272 72.4794 80.3534 70.8003 81.0538C69.1212 81.7541 67.3199 82.1147 65.5006 82.1147C63.6813 82.1147 61.8801 81.7541 60.201 81.0538C58.5218 80.3534 56.9981 79.3272 55.7178 78.0345C54.4375 76.7417 53.4261 75.208 52.7419 73.522C52.0577 71.836 51.7144 70.0311 51.7317 68.2116V68.2154ZM47.6306 100.08H44.7007V81.9097H47.6306V100.08ZM80.442 100.08H50.558V93.63H80.4395V100.076L80.442 100.08ZM80.442 90.7034H50.558V81.9134H55.9566C58.7548 83.8682 62.0856 84.9164 65.4988 84.9164C68.9119 84.9164 72.2427 83.8682 75.0409 81.9134H80.4395V90.7034H80.442ZM100.066 100.08H89.2267V97.5168C89.2267 97.1282 89.0724 96.7555 88.7976 96.4807C88.5229 96.206 88.1503 96.0516 87.7617 96.0516C87.3732 96.0516 87.0006 96.206 86.7259 96.4807C86.4512 96.7555 86.2968 97.1282 86.2968 97.5168V100.08H83.3682V81.9097H86.2968V86.379C86.2968 86.7676 86.4512 87.1403 86.7259 87.4151C87.0006 87.6899 87.3732 87.8442 87.7617 87.8442C88.1503 87.8442 88.5229 87.6899 88.7976 87.4151C89.0724 87.1403 89.2267 86.7676 89.2267 86.379V81.926C92.1505 82.0798 94.9039 83.3489 96.9204 85.472C98.9368 87.595 100.063 90.4105 100.066 93.3387V100.08Z" fill="#435B97"/>
<path d="M88.8001 91.1308C88.5604 90.8911 88.2451 90.7418 87.9077 90.7085C87.5704 90.6752 87.232 90.7599 86.9501 90.9482C86.6682 91.1364 86.4603 91.4166 86.3619 91.7409C86.2635 92.0652 86.2806 92.4136 86.4104 92.7268C86.5401 93.0399 86.7744 93.2983 87.0734 93.4581C87.3724 93.6178 87.7175 93.6689 88.0499 93.6027C88.3824 93.5365 88.6816 93.3571 88.8965 93.0951C89.1115 92.833 89.2289 92.5046 89.2288 92.1656C89.2275 91.7777 89.0735 91.4059 88.8001 91.1308V91.1308Z" fill="#435B97"/>
<path d="M70.0712 57.5987H75.2397C75.6283 57.5987 76.0008 57.4443 76.2756 57.1695C76.5503 56.8947 76.7047 56.522 76.7047 56.1334C76.7047 55.7448 76.5503 55.3721 76.2756 55.0974C76.0008 54.8226 75.6283 54.6682 75.2397 54.6682H70.0712C69.0917 54.6695 68.1528 55.0593 67.4604 55.7521C66.768 56.4449 66.3785 57.3842 66.3775 58.3638V67.9903C66.3775 68.2234 66.2849 68.4469 66.1202 68.6118C65.9554 68.7766 65.7319 68.8692 65.4988 68.8692C65.2658 68.8692 65.0423 68.7766 64.8775 68.6118C64.7127 68.4469 64.6201 68.2234 64.6201 67.9903V58.3638C64.6191 57.3842 64.2297 56.4449 63.5372 55.7521C62.8448 55.0593 61.9059 54.6695 60.9265 54.6682H55.7579C55.3694 54.6682 54.9968 54.8226 54.7221 55.0974C54.4473 55.3721 54.293 55.7448 54.293 56.1334C54.293 56.522 54.4473 56.8947 54.7221 57.1695C54.9968 57.4443 55.3694 57.5987 55.7579 57.5987H60.9265C61.1291 57.599 61.3234 57.6797 61.4666 57.8232C61.6098 57.9666 61.6902 58.1611 61.6902 58.3638V66.8501L56.3354 68.9754C56.0189 69.1013 55.7563 69.3336 55.5925 69.6322C55.4287 69.9309 55.3741 70.2773 55.438 70.6119C55.5019 70.9465 55.6804 71.2483 55.9427 71.4655C56.205 71.6827 56.5348 71.8017 56.8754 71.8021H59.5365C59.8638 73.14 60.6305 74.3293 61.7138 75.1796C62.797 76.03 64.1343 76.4922 65.5113 76.4922C66.8884 76.4922 68.2256 76.03 69.3089 75.1796C70.3922 74.3293 71.1588 73.14 71.4861 71.8021H74.111C74.4516 71.8017 74.7814 71.6827 75.0437 71.4655C75.306 71.2483 75.4845 70.9465 75.5484 70.6119C75.6124 70.2773 75.5577 69.9309 75.3939 69.6322C75.2301 69.3336 74.9674 69.1013 74.651 68.9754L69.2962 66.8501V58.3638C69.2962 58.2625 69.3163 58.1622 69.3554 58.0687C69.3944 57.9752 69.4517 57.8904 69.5238 57.8192C69.5959 57.748 69.6814 57.6919 69.7753 57.654C69.8693 57.6162 69.9699 57.5973 70.0712 57.5987V57.5987ZM65.5176 73.5586C64.924 73.5582 64.342 73.3939 63.8358 73.0837C63.3296 72.7735 62.9189 72.3296 62.6489 71.8009H68.3862C68.1162 72.3296 67.7055 72.7735 67.1993 73.0837C66.6932 73.3939 66.1112 73.5582 65.5176 73.5586V73.5586Z" fill="#435B97"/>
<path d="M59.7327 44.8367C59.4931 44.5976 59.1779 44.4489 58.8409 44.4161C58.504 44.3833 58.166 44.4683 57.8847 44.6567C57.6034 44.8451 57.3961 45.1252 57.2981 45.4493C57.2 45.7734 57.2174 46.1214 57.3471 46.4342C57.4769 46.747 57.711 47.0051 58.0097 47.1646C58.3083 47.324 58.653 47.375 58.9851 47.3088C59.3171 47.2427 59.6159 47.0634 59.8307 46.8016C60.0454 46.5399 60.1627 46.2117 60.1627 45.8731C60.1612 45.4845 60.0067 45.1122 59.7327 44.8367Z" fill="#435B97"/>
</svg>
