<svg class='header__icon' viewBox="0 0 208 208" fill="none" xmlns="http://www.w3.org/2000/svg">
<path d="M207.214 54.8349V153.465C207.199 167.75 201.518 181.445 191.419 191.547C181.319 201.648 167.625 207.331 153.34 207.349H54.7099C40.4254 207.331 26.7311 201.648 16.6313 191.547C6.53154 181.445 0.851021 167.75 0.835938 153.465V54.8349C0.850757 40.5502 6.53117 26.8546 16.631 16.7527C26.7308 6.65088 40.4252 0.967687 54.7099 0.949951H153.34C167.625 0.967687 181.319 6.65088 191.419 16.7527C201.519 26.8546 207.199 40.5502 207.214 54.8349V54.8349Z" fill="#49494B"/>
<path d="M149.533 68.119V38.293H123.169C118.197 38.293 113.274 39.2723 108.681 41.1749C104.087 43.0775 99.9137 45.8663 96.3981 49.3819C92.8824 52.8975 90.0937 57.0712 88.191 61.6646C86.2884 66.258 85.3091 71.1811 85.3091 76.153V103.438H58.5161V134.575H85.3091V207.349H118.018V134.1H142.511L147.182 103.186H118.018V81.186C118.018 79.4705 118.356 77.7719 119.012 76.187C119.669 74.6021 120.631 73.162 121.844 71.949C123.057 70.736 124.497 69.7738 126.082 69.1173C127.667 68.4609 129.366 68.123 131.081 68.123L149.533 68.119Z" fill="white"/>
</svg>
