<svg class='featured__icon' viewBox="0 0 208 208" fill="none" xmlns="http://www.w3.org/2000/svg">
<path d="M207.214 54.59V153.22C207.198 167.504 201.517 181.198 191.417 191.299C181.317 201.4 167.624 207.082 153.34 207.1H54.7099C40.4254 207.082 26.7311 201.399 16.6313 191.298C6.53154 181.196 0.851021 167.501 0.835938 153.216V54.59C0.851021 40.3055 6.53154 26.6102 16.6313 16.5085C26.7311 6.40685 40.4254 0.72379 54.7099 0.706055H153.34C167.625 0.72379 181.319 6.40685 191.419 16.5085C201.518 26.6102 207.199 40.3055 207.214 54.59Z" fill="#4473E7"/>
<path d="M149.533 67.8741V38.0481H123.169C118.197 38.0481 113.274 39.0274 108.681 40.93C104.087 42.8327 99.9137 45.6214 96.3981 49.137C92.8824 52.6527 90.0937 56.8263 88.191 61.4197C86.2884 66.0131 85.3091 70.9363 85.3091 75.9081V103.193H58.5161V134.33H85.3091V207.1H118.018V133.851H142.511L147.182 102.937H118.018V80.9371C118.018 77.4727 119.395 74.1502 121.844 71.7005C124.294 69.2507 127.617 67.8744 131.081 67.8741H149.533Z" fill="white"/>
</svg>
