<svg class='header__icon' viewBox="0 0 208 208" fill="none" xmlns="http://www.w3.org/2000/svg">
<path d="M155.897 0.955078H52.4367C24.0133 0.955078 0.97168 23.9967 0.97168 52.4201V155.88C0.97168 184.303 24.0133 207.345 52.4367 207.345H155.897C184.32 207.345 207.362 184.303 207.362 155.88V52.4201C207.362 23.9967 184.32 0.955078 155.897 0.955078Z" fill="#49494B"/>
<path d="M104.167 143.225C96.4385 143.225 88.8838 140.933 82.4579 136.64C76.0321 132.346 71.0237 126.243 68.0662 119.103C65.1087 111.963 64.3349 104.107 65.8426 96.527C67.3503 88.9471 71.0719 81.9846 76.5366 76.5199C82.0014 71.0552 88.9638 67.3336 96.5436 65.8259C104.123 64.3182 111.98 65.092 119.12 68.0495C126.26 71.007 132.363 76.0153 136.656 82.4412C140.95 88.867 143.242 96.4218 143.242 104.15C143.23 114.51 139.11 124.442 131.784 131.767C124.459 139.093 114.527 143.213 104.167 143.225ZM104.167 78.0841C99.0115 78.0843 93.972 79.6132 89.6856 82.4775C85.3992 85.3418 82.0584 89.4128 80.0857 94.1758C78.113 98.9387 77.5969 104.18 78.6028 109.236C79.6087 114.292 82.0913 118.937 85.7367 122.582C89.3822 126.227 94.0267 128.71 99.083 129.715C104.139 130.721 109.38 130.205 114.143 128.232C118.906 126.259 122.977 122.918 125.841 118.631C128.705 114.345 130.234 109.305 130.234 104.15C130.225 97.2395 127.476 90.6146 122.589 85.7282C117.702 80.8418 111.077 78.0928 104.167 78.0841Z" fill="white"/>
<path d="M140.513 180.2H67.8216C57.2965 180.187 47.2061 176 39.7638 168.558C32.3214 161.116 28.1345 151.025 28.1216 140.5V67.8001C28.1348 57.275 32.3217 47.1849 39.7641 39.7426C47.2064 32.3002 57.2966 28.1133 67.8216 28.1001H140.513C151.038 28.1133 161.128 32.3002 168.57 39.7426C176.012 47.1849 180.199 57.275 180.213 67.8001V140.49C180.202 151.017 176.017 161.11 168.574 168.554C161.131 175.999 151.039 180.187 140.513 180.2V180.2ZM67.8216 41.1101C60.7424 41.117 53.9552 43.9322 48.9494 48.938C43.9437 53.9437 41.1285 60.7309 41.1216 67.8101V140.5C41.1282 147.579 43.9433 154.367 48.9491 159.373C53.9549 164.378 60.7423 167.193 67.8216 167.2H140.513C147.592 167.193 154.379 164.378 159.385 159.373C164.391 154.367 167.206 147.579 167.213 140.5V67.8001C167.206 60.7209 164.39 53.9337 159.385 48.9279C154.379 43.9222 147.592 41.107 140.513 41.1001L67.8216 41.1101Z" fill="white"/>
<path d="M144.333 72.3C149.294 72.3 153.317 68.2778 153.317 63.316C153.317 58.3543 149.294 54.332 144.333 54.332C139.371 54.332 135.349 58.3543 135.349 63.316C135.349 68.2778 139.371 72.3 144.333 72.3Z" fill="white"/>
</svg>
