<svg class='lpf-logo' width="130" height="96" viewBox="0 0 130 96" fill="none" xmlns="http://www.w3.org/2000/svg">
<path fill-rule="evenodd" clip-rule="evenodd" d="M55.009 0.820391C53.8963 1.25577 51.5292 2.68573 49.7488 3.99835C40.4108 10.8831 37.6103 12.6861 33.2723 14.6065C30.762 15.718 28.1327 16.8898 27.4295 17.2107C26.3758 17.6918 19.0176 19.4095 18.0109 19.4095C17.8515 19.4095 17.8009 18.8656 17.8984 18.2008C18.1732 16.327 17.7204 15.2414 16.2512 14.2504C12.0536 11.4205 5.63088 16.0353 7.89032 20.2572C8.26016 20.9479 8.12622 21.1312 6.86945 21.6564C2.38332 23.5306 2.95021 26.938 7.82558 27.4066C10.1825 27.6327 12.1956 26.7243 12.561 25.2693C12.8341 24.1804 13.9391 23.8725 13.9391 24.8849C13.9391 26.9267 11.5049 30.2479 8.70889 32.0209C6.51256 33.4141 6.4025 33.4206 6.09175 32.1824C5.77654 30.926 4.59664 30.5546 2.80252 31.1469C0.726771 31.832 0.539833 32.4968 1.26007 36.6378C2.14661 41.7365 1.80794 52.6744 0.616712 57.4033C-0.354802 61.2599 -0.240293 62.061 1.40412 62.9116C3.03356 63.754 3.70444 63.6698 4.90295 62.4709C6.26088 61.1134 7.285 61.3748 9.57237 63.6621C11.7084 65.7982 12.9316 68.3012 12.5614 69.7773C12.2712 70.9321 11.5114 70.7958 11.5114 69.5892C11.5114 67.2666 6.46077 66.2801 3.78213 68.0791C1.18441 69.8238 2.16563 73.2377 5.45365 73.8952C6.42516 74.0894 6.63072 74.2885 6.3847 74.7975C6.21112 75.1568 6.06585 76.3048 6.0614 77.3483C6.05493 78.8989 6.26938 79.4714 7.23078 80.4749C9.27739 82.6113 11.9148 82.9601 14.816 81.4784C16.0784 80.8334 16.9678 78.5553 16.6251 76.8433C16.4005 75.7205 16.4393 75.6865 17.6945 75.9066C22.0054 76.6629 27.1385 78.3542 31.0335 80.3025C35.6078 82.5903 41.9783 86.5884 45.5544 89.4152C46.6947 90.3163 49.3239 92.0663 51.3969 93.3033C54.4878 95.1476 55.5925 95.591 57.5367 95.7675C60.2825 96.0163 62.5068 95.1277 64.2135 93.0993L65.2255 91.8968L66.562 93.2761C69.3142 96.1154 72.3894 96.128 78.0413 93.3219C80.0806 92.3099 84.1087 89.8198 86.9921 87.7886C95.2259 81.989 104.749 77.6793 111.601 76.6515L113.533 76.3618L113.267 77.7793C112.769 80.4361 115.151 82.9342 118.267 83.0228C119.752 83.0653 122.214 81.8583 123.2 80.6048C124.052 79.522 124.282 76.7288 123.608 75.6622C123.312 75.1945 123.585 74.9303 124.86 74.4483C129.708 72.6154 127.709 67.9674 122.072 67.9658C119.716 67.965 118.715 68.6945 118.317 70.7035C118.109 71.7523 118.074 71.7673 117.647 70.9973C116.743 69.3678 118.713 65.8374 121.88 63.4129C123.607 62.0906 124.259 62.0177 124.605 63.1086C125.166 64.8772 128.546 64.5701 129.622 62.653C130.146 61.7195 130.135 61.3533 129.528 59.4212C127.608 53.3121 127.544 46.4334 129.314 36.4601C129.835 33.5278 129.829 33.4703 128.899 32.7173C128.33 32.2568 127.321 31.953 126.36 31.953C124.954 31.953 124.716 32.0958 124.345 33.1584C123.943 34.3128 123.879 34.3399 122.849 33.7989C119.159 31.8631 115.623 25.5048 117.828 24.7708C118.144 24.6652 118.333 24.9881 118.333 25.6318C118.333 26.1979 118.743 27.0481 119.244 27.5203C120.026 28.2583 120.537 28.3586 122.866 28.232C125.045 28.1138 125.78 27.8945 126.609 27.116C128.096 25.7192 127.977 24.1586 126.287 22.8694C125.542 22.3018 124.734 21.8372 124.49 21.8372C123.694 21.8372 123.586 21.1348 124.2 19.9573C125.296 17.8569 124.762 15.7763 122.613 13.7681C121.797 13.0054 121.118 12.7812 119.641 12.7865C115.944 12.7994 113.253 15.2822 113.626 18.3356L113.816 19.8918L112.332 19.6284C105.867 18.4808 95.0219 13.3263 87.177 7.67157C76.8254 0.21021 71.303 -1.31039 67.3906 2.22405L65.8611 3.60626L64.6837 2.35394C62.3668 -0.110256 58.8246 -0.671476 55.009 0.820391ZM61.4511 2.4555C65.2833 3.51927 66.5377 7.07758 64.0711 9.88651C62.5586 11.6094 59.6574 12.6246 57.9462 12.0302C56.6404 11.5767 54.8067 9.53165 54.8067 8.52898C54.8067 7.59469 56.7416 5.78196 58.3298 5.22802C60.1854 4.58142 61.2807 5.26969 61.2807 7.08243C61.2807 8.51725 60.7426 8.96517 60.325 7.87753C60.0252 7.09619 58.6931 7.09498 58.0453 7.87551C57.6415 8.36187 57.6666 8.66817 58.172 9.44021C59.0346 10.7565 60.1773 10.9608 61.6542 10.0629C62.6957 9.42928 62.8993 9.05257 62.8993 7.75695C62.8993 5.52299 61.2686 4.03234 58.8307 4.0376C56.5729 4.04245 54.1928 5.14183 48.0655 9.01009C45.4306 10.6735 41.8181 12.7602 40.0377 13.6471C31.704 17.799 20.8065 21.2619 14.7484 21.6831C12.1608 21.8631 11.5215 21.7729 10.4095 21.0693C8.00079 19.5446 8.26542 16.9052 10.9562 15.6221C13.9221 14.208 16.7715 15.2309 16.7715 17.71C16.7715 19.2828 16.0869 19.8141 14.0605 19.8141C12.1418 19.8141 11.7222 20.4579 13.371 20.8714C16.0711 21.5491 23.0987 19.9852 30.3266 17.0982C36.3341 14.6984 41.3621 11.9857 48.1303 7.49313C56.7153 1.79433 57.7119 1.41722 61.4511 2.4555ZM76.9957 3.68233C78.1837 4.08737 80.7329 5.48981 82.6605 6.79838C87.069 9.79102 94.6574 14.1125 99.9228 16.6284C107.922 20.4506 115.588 22.25 118.536 20.9972L119.75 20.4813L117.823 20.2296C115.359 19.908 114.516 19.1072 114.883 17.4361C115.533 14.4795 119.744 13.4748 122.006 15.7366C123.705 17.4353 123.727 18.9721 122.077 20.7152C120.457 22.4272 118.861 22.7816 115.244 22.2338C106.248 20.8698 96.0173 16.8469 87.7839 11.4354C79.6031 6.05832 76.0914 4.43818 72.6176 4.43818C70.0304 4.43818 68.8651 5.63912 69.0444 8.12031C69.1471 9.54703 69.379 9.99091 70.2837 10.4947C71.2832 11.0514 71.5098 11.0514 72.5092 10.4943C73.9505 9.69067 74.1738 8.29551 72.9656 7.64891C72.1867 7.23215 71.9573 7.28677 71.3524 8.03412L70.6467 8.90529L70.3812 8.06811C70.0847 7.13463 71.1148 5.24218 71.9116 5.25634C72.7621 5.27172 75.6176 6.70451 76.2002 7.40856C76.6473 7.94874 76.6607 8.30765 76.2686 9.25327C74.9584 12.4171 71.8351 13.1551 68.7931 11.0203C66.6595 9.52316 65.8826 7.447 66.7125 5.46108C67.9381 2.52752 71.7016 1.87647 76.9957 3.68233ZM82.1191 11.3573C90.6969 15.7087 91.8626 16.2683 95.5257 17.793C102.397 20.6525 107.91 22.2504 114.356 23.2502C115.795 23.4732 115.831 23.5193 115.487 24.7194C114.671 27.5644 116.8 33.0143 119.591 35.2248C121.377 36.639 123.964 37.6178 125.917 37.6178C127.2 37.6178 127.302 37.7015 127.035 38.5282C126.873 39.0287 126.65 41.9991 126.54 45.1281C126.363 50.1621 126.593 53.3101 127.454 57.6469C127.695 58.8572 127.69 58.8608 125.745 58.8993C120.518 59.0024 115.137 65.1908 115.584 70.5845L115.762 72.7234L113.248 72.9812C106.946 73.6265 94.5073 77.9452 82.9239 83.5092L76.8505 86.4266L76.0954 84.8469C75.6803 83.9778 74.7873 82.9306 74.1111 82.5191L72.8815 81.7713L73.8586 81.5718C74.396 81.4622 76.2925 81.166 78.0728 80.9131C84.4761 80.0035 93.1639 77.3366 98.5564 74.6244C105.569 71.0972 112.623 64.995 115.615 59.8655C120.115 52.1525 120.048 43.4594 115.429 35.6958C112.281 30.4061 104.623 24.0789 97.2466 20.6743C91.1035 17.8387 79.209 14.5539 75.0851 14.5539C73.403 14.5539 73.3043 14.146 74.7508 13.1749C75.4654 12.6959 76.4139 11.6268 76.859 10.7998C77.304 9.9727 77.7593 9.29778 77.8705 9.30021C77.9818 9.30263 79.8937 10.2284 82.1191 11.3573ZM54.5764 11.1154C54.9964 11.8951 55.8911 12.8816 56.5652 13.3085L57.7904 14.0841L56.1974 14.3237C38.6826 16.955 27.7451 21.6374 19.3895 30.0812C13.4613 36.0725 10.8049 42.2694 11.2172 49.1497C12.0782 63.525 26.761 75.729 48.7372 80.3357C51.2965 80.8722 54.0278 81.3254 54.8067 81.3428C56.3224 81.3768 58.4184 82.0457 57.1754 82.0987C56.5437 82.1254 54.0043 84.6604 53.9913 85.277C53.9877 85.4361 53.8319 85.8083 53.6446 86.1037C53.3808 86.5192 51.9172 85.9467 47.179 83.5731C33.5527 76.7487 20.4233 72.0113 15.1364 72.0113C14.0419 72.0113 13.9869 71.9388 14.351 70.9803C15.0988 69.0142 13.3824 63.9421 11.0837 61.3242C9.37774 59.3812 7.09725 58.2409 4.34982 57.9573C2.36107 57.7521 2.16765 57.6473 2.35985 56.8793C3.42888 52.6028 3.88126 44.123 3.30628 39.1351L2.99148 36.4039H4.56104C6.64488 36.4039 8.50293 35.7367 10.641 34.2201C13.3605 32.2916 15.6454 27.7788 15.6078 24.4107L15.5888 22.7359L17.8567 22.4527C20.8834 22.0744 28.8323 20.0989 32.3498 18.8503C36.309 17.4454 46.7618 12.9548 50.1534 11.202C51.7113 10.3968 53.172 9.72911 53.3998 9.71819C53.6272 9.70726 54.1568 10.3361 54.5764 11.1154ZM68.8206 14.0275C68.772 14.0764 67.4279 14.0069 65.834 13.8733L62.9365 13.6305L64.4352 12.5401L65.934 11.4492L67.4218 12.6942C68.24 13.3789 68.8696 13.9789 68.8206 14.0275ZM73.7389 15.3866C94.9993 17.7023 111.602 27.5138 116.776 40.82C117.394 42.4098 117.708 44.282 117.834 47.1314C117.993 50.7213 117.892 51.5451 116.944 54.3674C112.344 68.073 95.0632 78.4194 73.2173 80.5481C67.5019 81.1053 56.9702 80.816 51.9743 79.9651C32.001 76.5625 17.0378 66.6528 13.0817 54.2076C11.9403 50.6161 11.9403 45.2556 13.0817 41.6641C16.0909 32.1974 25.8983 23.7985 39.4627 19.072C43.8424 17.5461 51.1978 15.8868 55.6378 15.4231C60.5678 14.908 69.188 14.891 73.7389 15.3866ZM117.524 16.5771C116.578 17.5235 116.494 18.3174 117.27 18.9623C118.085 19.6381 119.143 19.0659 119.143 17.95C119.143 16.7304 119.693 16.7021 120.268 17.8921C120.7 18.7892 120.707 18.7863 120.734 17.7039C120.751 17.0124 120.471 16.4504 119.979 16.1866C118.867 15.5918 118.442 15.659 117.524 16.5771ZM11.5923 16.658C11.3252 16.925 11.1124 17.5166 11.1189 17.973C11.1302 18.7305 11.167 18.741 11.5437 18.0944C12.0774 17.1783 13.0566 17.1783 12.9838 18.0944C12.9093 19.0328 14.6577 19.3075 15.0017 18.4112C15.5726 16.9234 12.7685 15.4817 11.5923 16.658ZM10.8712 23.7014C11.2233 23.8365 11.5114 24.1962 11.5114 24.5013C11.5114 25.2191 9.66867 26.4278 8.99537 26.151C8.66924 26.0171 8.8145 25.8354 9.38705 25.6614C10.6871 25.2661 10.5969 24.1133 9.28589 24.3641C8.72953 24.4706 8.27432 24.4131 8.27432 24.2371C8.27432 24.0607 8.68421 23.8377 9.18473 23.7414C9.68526 23.6447 10.1259 23.5411 10.1631 23.5108C10.2008 23.4804 10.5192 23.5662 10.8712 23.7014ZM123.089 24.9695C123.208 25.33 122.903 25.4012 122.007 25.2224C121.047 25.0302 120.761 25.1159 120.761 25.5971C120.761 25.9402 120.989 26.3124 121.267 26.4249C121.589 26.5548 121.534 26.6406 121.114 26.6608C120.229 26.7037 119.398 25.6412 119.701 24.8525C119.996 24.0837 122.83 24.1817 123.089 24.9695ZM2.44928 61.3812C2.03817 61.7928 1.69869 61.1733 2.03615 60.6274C2.29107 60.2147 2.38656 60.2147 2.52332 60.6258C2.6172 60.907 2.58361 61.2469 2.44928 61.3812ZM127.973 62.0303C128.162 63.0066 127.37 62.8614 127.112 61.8725C126.973 61.3428 127.067 61.0976 127.368 61.198C127.629 61.2845 127.901 61.6592 127.973 62.0303ZM9.88838 69.3759C10.6005 70.2337 10.0907 71.202 8.92698 71.202C7.49986 71.202 6.6558 70.7994 6.6558 70.1184C6.6558 69.6231 6.76343 69.6333 7.30968 70.1795C8.01495 70.8848 8.73398 70.835 8.99092 70.0634C9.07913 69.7988 8.72629 69.4123 8.20715 69.2039L7.26275 68.8256L8.32611 68.7997C8.9108 68.786 9.61404 69.0449 9.88838 69.3759ZM122.784 69.3913C122.784 69.5078 122.329 69.7765 121.773 69.9881C120.295 70.5501 120.474 71.3606 122.007 71.0539C122.903 70.8747 123.207 70.9459 123.087 71.3068C122.992 71.5921 122.238 71.8089 121.34 71.8089C119.202 71.8089 118.904 70.6319 120.832 69.7951C122.288 69.1623 122.784 69.0599 122.784 69.3913ZM17.5998 73.8523C20.2878 74.42 24.069 75.432 26.0023 76.1013C30.9 77.7971 41.6052 83.1608 46.9164 86.5799C52.7006 90.3037 55.3408 91.546 57.9251 91.7604C59.8451 91.9198 60.1409 91.8264 61.2633 90.7039C62.7398 89.2274 62.8673 87.6336 61.615 86.3003C60.5221 85.1374 58.821 85.0909 57.8199 86.1972C57.2438 86.8336 57.1673 87.1913 57.495 87.7145C58.0704 88.6326 59.6007 88.8277 59.9094 88.0224C60.3072 86.9866 60.8761 87.2982 60.8761 88.5517C60.8761 90.1763 59.9952 90.7755 58 90.5077C56.1185 90.2556 54.402 88.8705 54.402 87.6049C54.402 86.0831 56.4381 84.1186 58.246 83.8968C60.2951 83.6456 63.1724 85.1119 64.2693 86.9668C64.9268 88.0787 64.9673 88.474 64.5627 89.8251C63.8922 92.0631 62.1402 93.1871 59.0112 93.3862C57.633 93.474 55.8721 93.3368 55.0984 93.0815C54.3243 92.8262 50.8915 90.7577 47.4691 88.4849C32.3975 78.4752 15.0049 71.815 11.2852 74.6284C10.5552 75.1807 10.6228 75.2236 12.2462 75.2353C13.2063 75.2426 14.3446 75.4369 14.7751 75.6671C15.8733 76.255 15.7802 78.1819 14.5861 79.5697C12.0228 82.5498 5.97724 79.2448 7.45697 75.6727C8.13755 74.0295 9.78237 73.0164 12.0107 72.8675C12.3967 72.8416 14.9119 73.285 17.5998 73.8523ZM121.075 74.677C123.117 76.0151 123.124 78.5966 121.091 80.3074C119.708 81.4711 117.692 81.635 115.935 80.7258C114.706 80.0905 114.287 79.3703 114.287 77.895C114.287 76.5763 115.255 75.9382 117.323 75.8937C118.915 75.8597 119.046 75.7881 118.506 75.2483C117.344 74.0882 112.261 74.5216 107.252 76.2077C101.951 77.9921 92.9729 82.392 85.6548 86.7912C77.3809 91.7653 75.8057 92.5814 73.5705 93.0544C69.6485 93.8843 65.7317 92.0157 65.7317 89.3152C65.7317 86.4051 67.9049 84.1336 70.9708 83.839C72.5626 83.686 73.0441 83.8224 74.1245 84.7312C75.7337 86.0855 76.0853 87.1662 75.3044 88.3579C74.6687 89.3282 72.3461 90.6242 71.2435 90.6242C70.4071 90.6242 69.2167 88.784 69.5279 87.9723C69.7468 87.4026 69.8621 87.4001 70.6467 87.9496C71.7109 88.6953 73.015 88.1629 73.015 86.9825C73.015 85.4563 70.2437 84.8174 68.8995 86.0337C67.72 87.1011 68.1028 90.1674 69.5352 91.1239C69.78 91.2874 70.94 91.4238 72.1135 91.4274C74.521 91.4343 78.0142 89.8651 84.4409 85.8896C91.3564 81.6119 102.206 76.8304 109.131 75.0092C114.682 73.5493 119.163 73.4246 121.075 74.677ZM11.6238 76.5115C11.3742 76.7612 11.2661 77.2164 11.3839 77.5231C11.6914 78.3243 10.6879 78.211 10.0514 77.3726C9.58451 76.7576 9.51208 76.7491 9.50115 77.3099C9.46069 79.3387 12.8721 79.8558 13.3641 77.8954C13.7684 76.2842 12.7006 75.4348 11.6238 76.5115ZM116.597 77.1193C115.997 77.7202 116.35 78.8972 117.322 79.5341C118.259 80.148 118.408 80.148 119.345 79.5341C119.901 79.1696 120.357 78.5744 120.357 78.211C120.357 77.6036 120.297 77.6045 119.617 78.2203C118.61 79.1315 118.259 79.0615 118.409 77.9795C118.501 77.3192 118.309 77.0368 117.71 76.951C117.256 76.8858 116.755 76.9619 116.597 77.1193ZM68.1238 82.2282C68.03 82.2836 67.3704 82.8561 66.6583 83.5003L65.3638 84.6709L63.9359 83.4174L62.5084 82.1638L65.2327 82.044C67.7722 81.9328 68.5394 81.9817 68.1238 82.2282Z" fill="#3D3D3D"/>
<path d="M44.766 29.32C44.766 30.364 44.424 31.456 43.74 32.596C43.068 33.736 42.132 34.732 40.932 35.584C39.744 36.424 38.514 36.952 37.242 37.168C36.51 38.644 35.982 39.676 35.658 40.264L35.28 40.876C37.656 41.464 39.624 42.358 41.184 43.558C41.976 44.17 42.51 44.92 42.786 45.808C42.93 46.264 43.002 46.654 43.002 46.978C43.002 47.302 42.936 47.572 42.804 47.788C42.684 48.016 42.54 48.172 42.372 48.256C42.204 48.34 42.084 48.382 42.012 48.382C41.94 48.382 41.904 48.352 41.904 48.292C41.904 48.232 41.97 48.052 42.102 47.752C42.246 47.464 42.318 47.122 42.318 46.726C42.318 46.33 42.234 45.892 42.066 45.412C41.898 44.932 41.586 44.488 41.13 44.08C40.674 43.684 40.038 43.312 39.222 42.964C38.418 42.604 37.716 42.352 37.116 42.208C36.528 42.052 35.736 41.878 34.74 41.686C33.72 43.114 32.658 44.092 31.554 44.62C30.894 44.944 30.306 45.106 29.79 45.106C29.286 45.106 28.836 45.004 28.44 44.8C27.756 44.464 27.414 43.954 27.414 43.27C27.414 42.586 27.864 41.986 28.764 41.47C29.784 40.87 31.164 40.57 32.904 40.57C33.528 40.57 34.092 40.618 34.596 40.714C35.136 39.874 35.766 38.716 36.486 37.24C36.414 37.24 36.348 37.24 36.288 37.24C35.532 37.24 34.83 37.114 34.182 36.862C33.534 36.61 33.018 36.268 32.634 35.836C32.13 35.272 31.878 34.636 31.878 33.928C31.878 33.556 31.968 33.154 32.148 32.722C32.34 32.29 32.754 31.852 33.39 31.408C34.038 30.964 34.854 30.628 35.838 30.4C35.994 30.364 36.126 30.346 36.234 30.346C36.342 30.346 36.408 30.376 36.432 30.436C36.456 30.496 36.408 30.55 36.288 30.598C36.168 30.646 36.03 30.682 35.874 30.706C35.358 30.766 34.878 30.94 34.434 31.228C33.666 31.72 33.132 32.476 32.832 33.496C32.76 33.736 32.724 33.97 32.724 34.198C32.724 34.414 32.766 34.678 32.85 34.99C32.934 35.302 33.114 35.626 33.39 35.962C33.666 36.286 34.038 36.514 34.506 36.646C34.986 36.778 35.4 36.844 35.748 36.844C36.108 36.844 36.438 36.826 36.738 36.79L38.268 32.938C39.324 30.226 40.584 28.558 42.048 27.934C42.432 27.778 42.804 27.7 43.164 27.7C43.536 27.7 43.884 27.82 44.208 28.06C44.544 28.288 44.724 28.57 44.748 28.906C44.76 29.05 44.766 29.188 44.766 29.32ZM44.01 29.338C44.01 28.882 43.8 28.654 43.38 28.654C42.768 28.654 42.024 29.188 41.148 30.256C40.464 31.108 39.804 32.14 39.168 33.352C38.544 34.552 37.986 35.662 37.494 36.682C39.162 36.31 40.662 35.398 41.994 33.946C43.338 32.482 44.01 30.946 44.01 29.338ZM34.038 41.578C33.45 41.446 32.844 41.38 32.22 41.38C31.596 41.38 30.954 41.47 30.294 41.65C28.914 42.01 28.104 42.52 27.864 43.18C27.816 43.3 27.792 43.414 27.792 43.522C27.792 43.834 27.96 44.086 28.296 44.278C28.644 44.482 29.022 44.584 29.43 44.584C29.994 44.584 30.606 44.428 31.266 44.116C32.262 43.636 33.186 42.79 34.038 41.578ZM41.8665 40.228C41.6985 40.636 41.6145 41.092 41.6145 41.596C41.6145 41.932 41.6865 42.202 41.8305 42.406C41.9865 42.598 42.2025 42.694 42.4785 42.694C43.5705 42.694 44.5605 41.668 45.4485 39.616C45.5325 39.424 45.6345 39.34 45.7545 39.364C45.8025 39.376 45.8265 39.406 45.8265 39.454C45.8265 39.502 45.6885 39.82 45.4125 40.408C45.1485 40.984 44.8785 41.452 44.6025 41.812C43.9905 42.652 43.2345 43.072 42.3345 43.072C41.8545 43.072 41.4465 42.916 41.1105 42.604C40.7745 42.292 40.6065 41.866 40.6065 41.326C40.6065 40.786 40.7325 40.216 40.9845 39.616C41.2485 39.004 41.6025 38.44 42.0465 37.924C42.4905 37.396 43.0005 37.012 43.5765 36.772C43.8525 36.652 44.1165 36.592 44.3685 36.592C44.6205 36.592 44.8545 36.664 45.0705 36.808C45.2745 36.976 45.3765 37.162 45.3765 37.366C45.3765 38.086 44.9445 38.776 44.0805 39.436C43.8165 39.64 43.4445 39.826 42.9645 39.994C42.4845 40.15 42.1185 40.228 41.8665 40.228ZM44.8905 37.348C44.8905 37.108 44.7945 36.988 44.6025 36.988C44.2665 36.988 43.7565 37.402 43.0725 38.23C42.6645 38.734 42.3045 39.298 41.9925 39.922C42.1965 39.922 42.4905 39.85 42.8745 39.706C43.2705 39.562 43.6125 39.37 43.9005 39.13C44.5605 38.566 44.8905 37.972 44.8905 37.348ZM46.0262 40.228C45.8582 40.636 45.7742 41.092 45.7742 41.596C45.7742 41.932 45.8462 42.202 45.9902 42.406C46.1462 42.598 46.3622 42.694 46.6382 42.694C47.7302 42.694 48.7202 41.668 49.6082 39.616C49.6922 39.424 49.7942 39.34 49.9142 39.364C49.9622 39.376 49.9862 39.406 49.9862 39.454C49.9862 39.502 49.8482 39.82 49.5722 40.408C49.3082 40.984 49.0382 41.452 48.7622 41.812C48.1502 42.652 47.3942 43.072 46.4942 43.072C46.0142 43.072 45.6062 42.916 45.2702 42.604C44.9342 42.292 44.7662 41.866 44.7662 41.326C44.7662 40.786 44.8922 40.216 45.1442 39.616C45.4082 39.004 45.7622 38.44 46.2062 37.924C46.6502 37.396 47.1602 37.012 47.7362 36.772C48.0122 36.652 48.2762 36.592 48.5282 36.592C48.7802 36.592 49.0142 36.664 49.2302 36.808C49.4342 36.976 49.5362 37.162 49.5362 37.366C49.5362 38.086 49.1042 38.776 48.2402 39.436C47.9762 39.64 47.6042 39.826 47.1242 39.994C46.6442 40.15 46.2782 40.228 46.0262 40.228ZM49.0502 37.348C49.0502 37.108 48.9542 36.988 48.7622 36.988C48.4262 36.988 47.9162 37.402 47.2322 38.23C46.8242 38.734 46.4642 39.298 46.1522 39.922C46.3562 39.922 46.6502 39.85 47.0342 39.706C47.4302 39.562 47.7722 39.37 48.0602 39.13C48.7202 38.566 49.0502 37.972 49.0502 37.348ZM53.1919 31.12C53.1919 31.648 53.0059 32.092 52.6339 32.452C52.2739 32.8 51.8539 33.052 51.3739 33.208C51.3259 33.232 51.2839 33.244 51.2479 33.244C51.2119 33.244 51.1939 33.214 51.1939 33.154C51.1939 33.094 51.2419 33.046 51.3379 33.01C51.6979 32.89 52.0039 32.698 52.2559 32.434C52.5079 32.158 52.6579 31.828 52.7059 31.444C52.5499 31.564 52.3759 31.624 52.1839 31.624C51.9919 31.624 51.8359 31.552 51.7159 31.408C51.5959 31.264 51.5539 31.09 51.5899 30.886C51.6139 30.682 51.7099 30.508 51.8779 30.364C52.0579 30.22 52.2559 30.148 52.4719 30.148C52.6999 30.148 52.8739 30.244 52.9939 30.436C53.1259 30.628 53.1919 30.856 53.1919 31.12ZM53.5195 42.658C53.6755 42.682 53.7835 42.694 53.8435 42.694C54.3235 42.694 54.7975 42.412 55.2655 41.848C55.5175 41.536 55.9675 40.75 56.6155 39.49C56.6395 39.43 56.6815 39.4 56.7415 39.4C56.8495 39.388 56.9035 39.43 56.9035 39.526C56.9035 39.55 56.8735 39.622 56.8135 39.742C56.7655 39.85 56.7175 39.964 56.6695 40.084C56.6215 40.192 56.5435 40.354 56.4355 40.57C56.3275 40.786 56.2315 40.96 56.1475 41.092C56.0755 41.224 55.9795 41.386 55.8595 41.578C55.7395 41.77 55.6195 41.92 55.4995 42.028L55.1215 42.424C54.9175 42.628 54.6775 42.772 54.4015 42.856C53.9575 43 53.5255 43.012 53.1055 42.892C52.8295 43.012 52.5835 43.072 52.3675 43.072C51.5155 43.072 50.9995 42.736 50.8195 42.064C50.7835 41.908 50.7655 41.722 50.7655 41.506C50.7655 41.278 50.8375 41.062 50.9815 40.858C51.1375 40.654 51.2995 40.546 51.4675 40.534C52.0795 39.37 52.6015 38.32 53.0335 37.384C53.5135 36.364 54.0715 35.854 54.7075 35.854C54.8755 35.854 55.0375 35.896 55.1935 35.98C55.3615 36.052 55.4215 36.136 55.3735 36.232C55.3375 36.328 55.2535 36.346 55.1215 36.286C54.9895 36.226 54.8755 36.196 54.7795 36.196C54.6835 36.196 54.5995 36.214 54.5275 36.25C54.1195 36.442 53.9155 36.856 53.9155 37.492C53.9155 37.828 53.9635 38.104 54.0595 38.32C54.1555 38.536 54.2635 38.77 54.3835 39.022C54.6595 39.646 54.7975 40.156 54.7975 40.552C54.7975 40.948 54.6715 41.338 54.4195 41.722C54.1675 42.106 53.8675 42.418 53.5195 42.658ZM52.9075 42.532C53.4355 42.124 53.6995 41.464 53.6995 40.552C53.6995 40.18 53.6575 39.67 53.5735 39.022C53.4895 38.374 53.4475 37.936 53.4475 37.708C53.4475 37.48 53.4535 37.324 53.4655 37.24C52.5535 39.064 51.9895 40.174 51.7735 40.57C52.0255 40.57 52.1515 40.75 52.1515 41.11C52.1515 41.818 52.4035 42.292 52.9075 42.532ZM51.5575 42.046C51.5575 42.118 51.5635 42.196 51.5755 42.28C51.6715 42.604 51.8935 42.766 52.2415 42.766C52.3855 42.766 52.5055 42.742 52.6015 42.694C52.1575 42.418 51.9175 41.968 51.8815 41.344C51.6655 41.56 51.5575 41.794 51.5575 42.046ZM77.0392 30.31C78.3112 31.066 78.9472 31.978 78.9472 33.046C78.9472 33.886 78.4792 34.786 77.5432 35.746C77.0032 36.31 76.3612 36.796 75.6172 37.204C74.8852 37.612 74.1592 37.906 73.4392 38.086C72.1912 38.386 71.0632 38.536 70.0552 38.536C69.8392 38.536 69.6232 38.53 69.4072 38.518C68.5312 39.802 67.6312 40.894 66.7072 41.794C65.3512 43.066 63.8572 43.702 62.2252 43.702C60.6652 43.702 59.7052 43.276 59.3452 42.424C59.2612 42.22 59.2192 41.986 59.2192 41.722C59.2192 41.446 59.3572 41.152 59.6332 40.84C60.0652 40.348 60.6712 40.102 61.4512 40.102C61.9552 40.102 62.4832 40.192 63.0352 40.372C63.2392 40.444 63.3112 40.522 63.2512 40.606C63.2032 40.654 63.0472 40.63 62.7832 40.534C62.5192 40.438 62.1892 40.39 61.7932 40.39C61.4092 40.39 61.0672 40.54 60.7672 40.84C60.4792 41.128 60.3352 41.44 60.3352 41.776C60.3352 41.908 60.3592 42.04 60.4072 42.172C60.5992 42.82 61.1452 43.144 62.0452 43.144C63.3892 43.144 64.7092 42.52 66.0052 41.272C66.9292 40.372 67.9672 38.752 69.1192 36.412C69.5632 35.536 70.1152 34.564 70.7752 33.496C71.4352 32.416 72.1072 31.492 72.7912 30.724C72.8752 30.64 72.9832 30.532 73.1152 30.4C73.3672 30.112 73.5772 29.884 73.7452 29.716C72.8812 29.596 71.9572 29.536 70.9732 29.536C69.9892 29.536 69.0592 29.62 68.1832 29.788C67.3072 29.944 66.5452 30.136 65.8972 30.364C65.2492 30.58 64.5892 30.868 63.9172 31.228C63.2572 31.576 62.6992 32.02 62.2432 32.56C61.6432 33.244 61.3432 33.958 61.3432 34.702C61.3432 35.158 61.5052 35.584 61.8292 35.98C62.1772 36.4 62.6212 36.61 63.1612 36.61C63.7132 36.61 64.2412 36.4 64.7452 35.98C65.2612 35.56 65.6272 35.044 65.8432 34.432C65.8552 34.348 65.8792 34.294 65.9152 34.27C65.9632 34.234 66.0052 34.234 66.0412 34.27C66.0772 34.306 66.0952 34.366 66.0952 34.45C66.0832 35.23 65.7772 35.848 65.1772 36.304C64.5892 36.748 63.9352 36.97 63.2152 36.97C62.3992 36.97 61.7332 36.73 61.2172 36.25C60.7012 35.77 60.4432 35.152 60.4432 34.396C60.4432 33.7 60.6292 33.076 61.0012 32.524C61.3732 31.96 61.8172 31.504 62.3332 31.156C62.8492 30.808 63.4432 30.496 64.1152 30.22C65.2552 29.764 66.4492 29.446 67.6972 29.266C68.9572 29.074 70.1272 28.978 71.2072 28.978C72.2992 28.978 73.3072 29.074 74.2312 29.266C74.6632 28.93 75.0412 28.702 75.3652 28.582C75.6892 28.462 75.8692 28.402 75.9052 28.402C75.9532 28.402 75.9832 28.408 75.9952 28.42C76.0672 28.42 76.0792 28.462 76.0312 28.546C75.9952 28.618 75.8572 28.732 75.6172 28.888C75.3892 29.044 75.1672 29.23 74.9512 29.446C75.7192 29.65 76.4152 29.938 77.0392 30.31ZM69.9112 38.14C70.7872 38.14 71.7352 37.99 72.7552 37.69C73.7872 37.378 74.6992 36.928 75.4912 36.34C77.0272 35.176 77.7952 33.976 77.7952 32.74C77.7952 31.336 76.7332 30.382 74.6092 29.878C73.9372 30.814 73.0672 32.236 71.9992 34.144C70.9312 36.052 70.1512 37.384 69.6592 38.14C69.7432 38.14 69.8272 38.14 69.9112 38.14ZM79.6607 35.998C79.4927 36.142 79.3067 36.214 79.1027 36.214C78.8987 36.214 78.7367 36.142 78.6167 35.998C78.4967 35.854 78.4487 35.68 78.4727 35.476C78.5087 35.272 78.6107 35.098 78.7787 34.954C78.9467 34.81 79.1327 34.738 79.3367 34.738C79.5407 34.738 79.7027 34.81 79.8227 34.954C79.9547 35.098 80.0027 35.272 79.9667 35.476C79.9307 35.68 79.8287 35.854 79.6607 35.998ZM77.8967 42.604C78.1247 42.604 78.3647 42.49 78.6167 42.262C79.0607 41.818 79.6247 40.912 80.3087 39.544C80.3927 39.364 80.4767 39.31 80.5607 39.382C80.5847 39.406 80.5967 39.448 80.5967 39.508C80.5967 39.556 80.5487 39.688 80.4527 39.904C80.3567 40.108 80.2667 40.294 80.1827 40.462C80.1107 40.63 79.9607 40.906 79.7327 41.29C79.5167 41.662 79.3187 41.95 79.1387 42.154C78.6467 42.718 78.1787 43 77.7347 43C77.3027 43 76.9907 42.868 76.7987 42.604C76.6067 42.34 76.5107 42.046 76.5107 41.722C76.5107 41.398 76.5887 41.044 76.7447 40.66L77.8967 37.726C77.9207 37.654 77.9327 37.558 77.9327 37.438C77.9327 37.318 77.8607 37.162 77.7167 36.97L78.7067 36.952C78.9827 36.952 79.1447 37.006 79.1927 37.114C79.2407 37.21 79.2047 37.366 79.0847 37.582L77.6447 40.948C77.4407 41.392 77.3387 41.77 77.3387 42.082C77.3387 42.43 77.5247 42.604 77.8967 42.604ZM83.3656 38.86C83.7856 38.356 83.9956 37.93 83.9956 37.582C83.9956 37.234 83.8516 37.06 83.5636 37.06C82.9996 37.06 82.3576 37.576 81.6376 38.608C81.4096 38.932 81.1876 39.358 80.9716 39.886C80.7556 40.414 80.6476 40.894 80.6476 41.326C80.6476 41.746 80.7316 42.088 80.8996 42.352C81.0796 42.616 81.3496 42.748 81.7096 42.748C82.0816 42.748 82.4236 42.664 82.7356 42.496C83.0476 42.316 83.3416 42.04 83.6176 41.668C83.9056 41.284 84.1216 40.966 84.2656 40.714C84.4096 40.462 84.6076 40.084 84.8596 39.58C84.9436 39.412 85.0156 39.346 85.0756 39.382C85.1356 39.406 85.1656 39.448 85.1656 39.508C85.1656 39.556 85.0816 39.754 84.9136 40.102C84.7576 40.438 84.5956 40.756 84.4276 41.056C84.2716 41.356 84.0436 41.692 83.7436 42.064C83.2036 42.736 82.4656 43.072 81.5296 43.072C80.8576 43.072 80.3716 42.91 80.0716 42.586C79.7836 42.25 79.6396 41.866 79.6396 41.434C79.6396 40.906 79.7656 40.33 80.0176 39.706C80.2816 39.082 80.5816 38.542 80.9176 38.086C81.6136 37.138 82.4176 36.664 83.3296 36.664C83.7736 36.664 84.0916 36.772 84.2836 36.988C84.4876 37.192 84.5896 37.432 84.5896 37.708C84.5896 38.116 84.4216 38.464 84.0856 38.752C83.9176 38.908 83.7736 38.986 83.6536 38.986C83.5456 38.986 83.4496 38.944 83.3656 38.86ZM84.0094 41.56C84.0094 40.564 84.4894 38.896 85.4494 36.556H84.5134C84.4534 36.556 84.4114 36.526 84.3874 36.466C84.3754 36.394 84.3814 36.328 84.4054 36.268C84.4414 36.196 84.4894 36.16 84.5494 36.16H85.6294C86.0614 35.212 86.4634 34.42 86.8354 33.784C87.2074 33.148 87.5494 32.722 87.8614 32.506C88.1734 32.278 88.3954 32.164 88.5274 32.164C88.6714 32.164 88.7734 32.176 88.8334 32.2C89.1094 32.332 89.2474 32.608 89.2474 33.028C89.2474 33.436 89.1094 33.934 88.8334 34.522C88.5574 35.11 88.2874 35.656 88.0234 36.16H88.8874C88.9474 36.16 88.9834 36.196 88.9954 36.268C89.0194 36.328 89.0134 36.394 88.9774 36.466C88.9534 36.526 88.9114 36.556 88.8514 36.556H87.8074C87.1474 37.672 86.3494 38.662 85.4134 39.526L84.9994 41.362C84.9634 41.518 84.9454 41.674 84.9454 41.83C84.9454 41.974 84.9874 42.124 85.0714 42.28C85.1554 42.436 85.2874 42.514 85.4674 42.514C85.6714 42.514 85.8994 42.442 86.1514 42.298C86.7274 41.866 87.3634 40.96 88.0594 39.58C88.1074 39.472 88.1614 39.406 88.2214 39.382C88.2934 39.358 88.3354 39.376 88.3474 39.436C88.3594 39.484 88.3414 39.568 88.2934 39.688C87.8974 40.516 87.5854 41.104 87.3574 41.452C86.7094 42.496 86.0194 43.018 85.2874 43.018C84.9154 43.018 84.6094 42.88 84.3694 42.604C84.1294 42.328 84.0094 41.98 84.0094 41.56ZM87.6274 36.16C88.4194 34.744 88.8154 33.76 88.8154 33.208C88.8154 32.968 88.7734 32.848 88.6894 32.848C88.5574 32.848 88.3534 33.04 88.0774 33.424C87.8134 33.808 87.3634 34.72 86.7274 36.16H87.6274ZM87.3934 36.556H86.5474C86.4034 36.892 86.0794 37.69 85.5754 38.95C86.2234 38.278 86.8294 37.48 87.3934 36.556ZM87.1629 41.956C87.1629 41.44 87.3849 40.816 87.8289 40.084C87.6369 40.084 87.5829 39.988 87.6669 39.796L87.9909 39.166C88.3989 38.386 88.7349 37.726 88.9989 37.186C89.1189 36.934 89.3529 36.808 89.7009 36.808H90.7989C90.3669 37.12 89.9289 37.726 89.4849 38.626C89.0529 39.514 88.7169 40.216 88.4769 40.732C88.2369 41.236 88.1169 41.62 88.1169 41.884C88.1169 42.148 88.1589 42.334 88.2429 42.442C88.3389 42.55 88.4649 42.604 88.6209 42.604C88.8489 42.604 89.1669 42.364 89.5749 41.884C90.2109 41.14 91.1049 39.574 92.2569 37.186C92.3889 36.934 92.6229 36.808 92.9589 36.808H93.9309C93.6669 37.012 93.4569 37.222 93.3009 37.438C93.1569 37.654 92.9529 38.038 92.6889 38.59C91.9689 40.03 91.5669 40.984 91.4829 41.452C91.4469 41.62 91.4289 41.776 91.4289 41.92C91.4289 42.304 91.5609 42.508 91.8249 42.532C92.4729 42.532 93.2709 41.53 94.2189 39.526C94.2909 39.358 94.3629 39.292 94.4349 39.328C94.5069 39.364 94.5429 39.412 94.5429 39.472C94.5429 39.532 94.4889 39.67 94.3809 39.886C94.2729 40.102 94.1649 40.312 94.0569 40.516C93.9609 40.72 93.8049 41.002 93.5889 41.362C93.3849 41.71 93.1929 41.986 93.0129 42.19C92.5449 42.718 92.0829 42.982 91.6269 42.982C91.1829 42.982 90.8769 42.784 90.7089 42.388C90.6369 42.208 90.6009 41.98 90.6009 41.704C90.6009 41.428 90.6609 41.086 90.7809 40.678C89.9049 42.214 89.0949 42.982 88.3509 42.982C87.7029 42.982 87.3249 42.712 87.2169 42.172C87.1809 42.112 87.1629 42.04 87.1629 41.956ZM96.3865 35.782C96.3865 36.322 96.0445 36.832 95.3605 37.312C95.6005 37.324 95.9185 37.33 96.3145 37.33C96.7225 37.33 97.2325 37.3 97.8445 37.24C97.8685 37.276 97.8805 37.372 97.8805 37.528C97.8805 37.684 97.8085 37.918 97.6645 38.23C97.5205 38.53 97.3885 38.794 97.2685 39.022C97.1605 39.238 97.0525 39.448 96.9445 39.652C96.8485 39.844 96.7345 40.084 96.6025 40.372C96.4825 40.66 96.3805 40.924 96.2965 41.164C95.9965 42.076 96.0445 42.532 96.4405 42.532C96.9445 42.532 97.6885 41.53 98.6725 39.526C98.7565 39.37 98.8225 39.31 98.8705 39.346C98.9305 39.382 98.9605 39.43 98.9605 39.49C98.9605 39.538 98.8825 39.724 98.7265 40.048C98.5705 40.36 98.4025 40.684 98.2225 41.02C98.0425 41.356 97.7605 41.746 97.3765 42.19C96.9205 42.742 96.4825 43.018 96.0625 43.018C95.5945 43.018 95.2705 42.736 95.0905 42.172C95.0545 42.064 95.0365 41.902 95.0365 41.686C95.0365 41.47 95.1025 41.182 95.2345 40.822C95.3785 40.462 95.6005 40.024 95.9005 39.508C96.2005 38.992 96.3685 38.692 96.4045 38.608C96.4405 38.512 96.4585 38.422 96.4585 38.338C96.4585 37.966 95.9785 37.768 95.0185 37.744L94.8025 38.32C94.0465 40.3 93.3205 41.626 92.6245 42.298C92.5045 42.406 92.4445 42.37 92.4445 42.19C92.4445 42.154 92.4565 42.112 92.4805 42.064C93.1525 41.176 93.7345 40.126 94.2265 38.914C94.7185 37.702 95.0605 36.55 95.2525 35.458C95.3245 35.086 95.4925 34.9 95.7565 34.9C96.0205 34.9 96.2125 35.068 96.3325 35.404C96.3685 35.512 96.3865 35.638 96.3865 35.782ZM99.1543 40.228C98.9863 40.636 98.9023 41.092 98.9023 41.596C98.9023 41.932 98.9743 42.202 99.1183 42.406C99.2743 42.598 99.4903 42.694 99.7663 42.694C100.858 42.694 101.848 41.668 102.736 39.616C102.82 39.424 102.922 39.34 103.042 39.364C103.09 39.376 103.114 39.406 103.114 39.454C103.114 39.502 102.976 39.82 102.7 40.408C102.436 40.984 102.166 41.452 101.89 41.812C101.278 42.652 100.522 43.072 99.6223 43.072C99.1423 43.072 98.7343 42.916 98.3983 42.604C98.0623 42.292 97.8943 41.866 97.8943 41.326C97.8943 40.786 98.0203 40.216 98.2723 39.616C98.5363 39.004 98.8903 38.44 99.3343 37.924C99.7783 37.396 100.288 37.012 100.864 36.772C101.14 36.652 101.404 36.592 101.656 36.592C101.908 36.592 102.142 36.664 102.358 36.808C102.562 36.976 102.664 37.162 102.664 37.366C102.664 38.086 102.232 38.776 101.368 39.436C101.104 39.64 100.732 39.826 100.252 39.994C99.7723 40.15 99.4063 40.228 99.1543 40.228ZM102.178 37.348C102.178 37.108 102.082 36.988 101.89 36.988C101.554 36.988 101.044 37.402 100.36 38.23C99.9523 38.734 99.5923 39.298 99.2803 39.922C99.4843 39.922 99.7783 39.85 100.162 39.706C100.558 39.562 100.9 39.37 101.188 39.13C101.848 38.566 102.178 37.972 102.178 37.348ZM55.7839 51.02C53.3599 49.82 51.4099 49.22 49.9339 49.22C48.4579 49.22 47.2219 49.64 46.2259 50.48C45.2779 51.284 44.8039 52.148 44.8039 53.072C44.8039 53.552 44.9779 53.9 45.3259 54.116C45.7939 54.38 46.2379 54.512 46.6579 54.512C46.8139 54.512 46.9699 54.494 47.1259 54.458C47.6779 54.326 48.1459 54.104 48.5299 53.792C48.9139 53.48 49.1059 53.228 49.1059 53.036C49.1059 52.844 49.1599 52.712 49.2679 52.64C49.3879 52.568 49.4479 52.592 49.4479 52.712C49.4479 52.784 49.4299 52.868 49.3939 52.964C49.1419 53.816 48.5539 54.398 47.6299 54.71C47.2339 54.842 46.8259 54.908 46.4059 54.908C45.9859 54.908 45.5719 54.782 45.1639 54.53C44.3959 54.098 44.0119 53.438 44.0119 52.55C44.0119 51.482 44.5039 50.51 45.4879 49.634C46.4719 48.758 47.6719 48.32 49.0879 48.32C49.7839 48.32 50.4859 48.422 51.1939 48.626C52.9699 49.106 54.5779 49.802 56.0179 50.714C56.3899 50.306 56.7739 50.102 57.1699 50.102C57.6139 50.102 57.8419 50.252 57.8539 50.552C57.8659 50.684 57.8239 50.744 57.7279 50.732C57.6679 50.72 57.6019 50.672 57.5299 50.588C57.4339 50.552 57.3439 50.534 57.2599 50.534C56.9959 50.534 56.7259 50.666 56.4499 50.93C57.3379 51.374 58.3819 51.752 59.5819 52.064C60.0499 52.172 60.4219 52.226 60.6979 52.226C60.9739 52.226 61.1839 52.22 61.3279 52.208C61.8559 52.148 62.1979 51.95 62.3539 51.614C62.4379 51.434 62.5099 51.326 62.5699 51.29C62.6419 51.242 62.6839 51.26 62.6959 51.344C62.6959 51.38 62.6959 51.428 62.6959 51.488C62.6959 51.98 62.4439 52.352 61.9399 52.604C61.6279 52.76 61.3339 52.838 61.0579 52.838C60.7819 52.838 60.4819 52.814 60.1579 52.766C59.8339 52.706 59.4139 52.592 58.8979 52.424C58.3819 52.256 57.9619 52.1 57.6379 51.956C57.3139 51.812 56.9959 51.662 56.6839 51.506L56.1799 51.254C55.5559 51.962 54.8899 53.18 54.1819 54.908C53.9539 55.484 53.8219 55.814 53.7859 55.898C54.4819 55.994 55.1239 56.042 55.7119 56.042C56.2999 56.042 56.7619 56.036 57.0979 56.024C57.4459 56 57.6259 56.036 57.6379 56.132C57.6499 56.396 56.7559 56.528 54.9559 56.528C54.3799 56.528 53.9179 56.504 53.5699 56.456C52.8259 58.496 52.0819 60.008 51.3379 60.992C51.0259 61.4 50.6359 61.826 50.1679 62.27C49.6999 62.726 49.2019 63.092 48.6739 63.368C47.4859 64.016 46.1599 64.34 44.6959 64.34C43.2319 64.34 41.9899 64.016 40.9699 63.368C39.4219 62.408 38.6479 61.022 38.6479 59.21C38.6479 58.598 38.7499 57.944 38.9539 57.248C39.0979 56.792 39.3619 56.39 39.7459 56.042C40.1419 55.694 40.4719 55.484 40.7359 55.412C40.9999 55.328 41.1199 55.31 41.0959 55.358C41.0839 55.406 40.8799 55.568 40.4839 55.844C39.7039 56.408 39.2419 57.104 39.0979 57.932C39.0379 58.232 39.0079 58.58 39.0079 58.976C39.0079 59.372 39.0979 59.804 39.2779 60.272C39.7699 61.544 40.7899 62.48 42.3379 63.08C43.0699 63.356 43.8559 63.494 44.6959 63.494C45.5359 63.494 46.3699 63.326 47.1979 62.99C48.0259 62.654 48.7939 62.15 49.5019 61.478C50.8819 60.17 52.0219 58.478 52.9219 56.402L51.7699 56.384C50.3659 56.384 49.4419 56.708 48.9979 57.356C48.8899 57.488 48.7999 57.524 48.7279 57.464C48.6679 57.392 48.6619 57.302 48.7099 57.194C48.9739 56.618 49.3459 56.204 49.8259 55.952C50.3059 55.7 50.7799 55.574 51.2479 55.574C51.7279 55.574 52.3699 55.628 53.1739 55.736C53.5459 54.824 54.0139 53.876 54.5779 52.892C55.1539 51.908 55.5559 51.284 55.7839 51.02ZM59.7773 54.782C59.7773 55.322 59.4353 55.832 58.7513 56.312C58.9913 56.324 59.3093 56.33 59.7053 56.33C60.1133 56.33 60.6233 56.3 61.2353 56.24C61.2593 56.276 61.2713 56.372 61.2713 56.528C61.2713 56.684 61.1993 56.918 61.0553 57.23C60.9113 57.53 60.7793 57.794 60.6593 58.022C60.5513 58.238 60.4433 58.448 60.3353 58.652C60.2393 58.844 60.1253 59.084 59.9933 59.372C59.8733 59.66 59.7713 59.924 59.6873 60.164C59.3873 61.076 59.4353 61.532 59.8313 61.532C60.3353 61.532 61.0793 60.53 62.0633 58.526C62.1473 58.37 62.2133 58.31 62.2613 58.346C62.3213 58.382 62.3513 58.43 62.3513 58.49C62.3513 58.538 62.2733 58.724 62.1173 59.048C61.9613 59.36 61.7933 59.684 61.6133 60.02C61.4333 60.356 61.1513 60.746 60.7673 61.19C60.3113 61.742 59.8733 62.018 59.4533 62.018C58.9853 62.018 58.6613 61.736 58.4813 61.172C58.4453 61.064 58.4273 60.902 58.4273 60.686C58.4273 60.47 58.4933 60.182 58.6253 59.822C58.7693 59.462 58.9913 59.024 59.2913 58.508C59.5913 57.992 59.7593 57.692 59.7953 57.608C59.8313 57.512 59.8493 57.422 59.8493 57.338C59.8493 56.966 59.3693 56.768 58.4093 56.744L58.1933 57.32C57.4373 59.3 56.7113 60.626 56.0153 61.298C55.8953 61.406 55.8353 61.37 55.8353 61.19C55.8353 61.154 55.8473 61.112 55.8713 61.064C56.5433 60.176 57.1253 59.126 57.6173 57.914C58.1093 56.702 58.4513 55.55 58.6433 54.458C58.7153 54.086 58.8833 53.9 59.1473 53.9C59.4113 53.9 59.6033 54.068 59.7233 54.404C59.7593 54.512 59.7773 54.638 59.7773 54.782ZM67.225 57.122C67.009 57.338 66.703 57.83 66.307 58.598C65.911 59.354 65.671 59.924 65.587 60.308C65.515 60.68 65.479 60.986 65.479 61.226C65.479 61.454 65.569 61.568 65.749 61.568C65.977 61.568 66.259 61.358 66.595 60.938C67.087 60.326 67.573 59.528 68.053 58.544C68.101 58.436 68.155 58.376 68.215 58.364C68.311 58.328 68.359 58.364 68.359 58.472C68.359 58.532 68.341 58.604 68.305 58.688C67.201 60.92 66.271 62.036 65.515 62.036C65.167 62.036 64.885 61.868 64.669 61.532C64.561 61.352 64.507 61.112 64.507 60.812C64.507 60.512 64.567 60.146 64.687 59.714C63.727 61.262 62.899 62.036 62.203 62.036C62.011 62.036 61.837 61.976 61.681 61.856C61.321 61.604 61.141 61.172 61.141 60.56C61.141 59.384 61.651 58.19 62.671 56.978C63.247 56.306 63.955 55.868 64.795 55.664C65.023 55.604 65.239 55.574 65.443 55.574C65.995 55.574 66.463 55.766 66.847 56.15C66.967 56.282 67.003 56.408 66.955 56.528C66.907 56.648 66.805 56.696 66.649 56.672C66.517 56.24 66.229 56.024 65.785 56.024C65.269 56.024 64.633 56.432 63.877 57.248C63.445 57.728 63.043 58.292 62.671 58.94C62.203 59.72 61.969 60.344 61.969 60.812C61.969 61.28 62.119 61.514 62.419 61.514C63.139 61.514 64.081 60.41 65.245 58.202C65.473 57.758 65.665 57.458 65.821 57.302C65.977 57.134 66.175 57.05 66.415 57.05C66.463 57.05 66.583 57.068 66.775 57.104C66.979 57.14 67.129 57.146 67.225 57.122ZM76.29 56.096C74.826 58.7 74.094 60.38 74.094 61.136C74.094 61.472 74.208 61.64 74.436 61.64C74.724 61.64 75.054 61.424 75.426 60.992C75.99 60.308 76.482 59.486 76.902 58.526C76.974 58.358 77.046 58.292 77.118 58.328C77.19 58.364 77.226 58.412 77.226 58.472C77.226 58.532 77.166 58.682 77.046 58.922C76.926 59.162 76.83 59.354 76.758 59.498C76.686 59.642 76.524 59.918 76.272 60.326C76.032 60.734 75.822 61.034 75.642 61.226C75.474 61.418 75.252 61.61 74.976 61.802C74.712 61.982 74.406 62.072 74.058 62.072C73.722 62.072 73.434 61.904 73.194 61.568C73.086 61.412 73.032 61.202 73.032 60.938C73.032 60.662 73.092 60.332 73.212 59.948C73.332 59.564 73.662 58.94 74.202 58.076C74.334 57.86 74.4 57.692 74.4 57.572C74.4 57.44 74.298 57.374 74.094 57.374C73.902 57.374 73.548 57.614 73.032 58.094C72.516 58.574 71.97 59.222 71.394 60.038C70.83 60.854 70.494 61.508 70.386 62C70.182 62 70.032 61.916 69.936 61.748C69.84 61.58 69.792 61.436 69.792 61.316C69.792 60.824 70.122 59.888 70.782 58.508C70.998 58.052 71.112 57.746 71.124 57.59C71.136 57.422 71.112 57.338 71.052 57.338C71.004 57.326 70.932 57.344 70.836 57.392C70.62 57.5 70.29 57.764 69.846 58.184C69.006 58.952 68.178 60.122 67.362 61.694C67.302 61.826 67.224 61.91 67.128 61.946C67.044 61.97 66.87 61.988 66.606 62C66.342 62.012 66.168 62.042 66.084 62.09C66.3 61.67 66.678 60.884 67.218 59.732C68.19 57.668 68.838 56.48 69.162 56.168C69.306 56.024 69.504 55.952 69.756 55.952C69.804 55.952 69.924 55.97 70.116 56.006C70.32 56.042 70.47 56.048 70.566 56.024C70.122 56.264 69.396 57.392 68.388 59.408C68.952 58.712 69.354 58.256 69.594 58.04C69.846 57.824 70.032 57.662 70.152 57.554C70.272 57.446 70.362 57.362 70.422 57.302C70.494 57.242 70.59 57.158 70.71 57.05C70.842 56.93 70.938 56.846 70.998 56.798C71.07 56.738 71.166 56.66 71.286 56.564C71.406 56.468 71.496 56.408 71.556 56.384C71.628 56.348 71.718 56.294 71.826 56.222C71.946 56.15 72.03 56.114 72.078 56.114C72.138 56.114 72.216 56.102 72.312 56.078C72.408 56.042 72.474 56.048 72.51 56.096C72.75 56.192 72.87 56.342 72.87 56.546C72.87 56.726 72.666 57.188 72.258 57.932C71.85 58.676 71.586 59.168 71.466 59.408C71.994 58.748 72.498 58.208 72.978 57.788C73.458 57.356 74.022 56.96 74.67 56.6C75.33 56.24 75.81 56.06 76.11 56.06C76.182 56.06 76.242 56.072 76.29 56.096ZM79.095 54.998C78.927 55.142 78.741 55.214 78.537 55.214C78.333 55.214 78.171 55.142 78.051 54.998C77.931 54.854 77.883 54.68 77.907 54.476C77.943 54.272 78.045 54.098 78.213 53.954C78.381 53.81 78.567 53.738 78.771 53.738C78.975 53.738 79.137 53.81 79.257 53.954C79.389 54.098 79.437 54.272 79.401 54.476C79.365 54.68 79.263 54.854 79.095 54.998ZM77.331 61.604C77.559 61.604 77.799 61.49 78.051 61.262C78.495 60.818 79.059 59.912 79.743 58.544C79.827 58.364 79.911 58.31 79.995 58.382C80.019 58.406 80.031 58.448 80.031 58.508C80.031 58.556 79.983 58.688 79.887 58.904C79.791 59.108 79.701 59.294 79.617 59.462C79.545 59.63 79.395 59.906 79.167 60.29C78.951 60.662 78.753 60.95 78.573 61.154C78.081 61.718 77.613 62 77.169 62C76.737 62 76.425 61.868 76.233 61.604C76.041 61.34 75.945 61.046 75.945 60.722C75.945 60.398 76.023 60.044 76.179 59.66L77.331 56.726C77.355 56.654 77.367 56.558 77.367 56.438C77.367 56.318 77.295 56.162 77.151 55.97L78.141 55.952C78.417 55.952 78.579 56.006 78.627 56.114C78.675 56.21 78.639 56.366 78.519 56.582L77.079 59.948C76.875 60.392 76.773 60.77 76.773 61.082C76.773 61.43 76.959 61.604 77.331 61.604ZM84.924 56.096C83.448 58.688 82.71 60.38 82.71 61.172C82.71 61.484 82.824 61.64 83.052 61.64C83.664 61.64 84.486 60.602 85.518 58.526C85.59 58.358 85.662 58.292 85.734 58.328C85.806 58.364 85.842 58.412 85.842 58.472C85.842 58.532 85.818 58.604 85.77 58.688C85.134 59.972 84.594 60.86 84.15 61.352C83.718 61.832 83.28 62.072 82.836 62.072C82.404 62.072 82.074 61.904 81.846 61.568C81.726 61.412 81.666 61.202 81.666 60.938C81.666 60.662 81.726 60.332 81.846 59.948C81.966 59.564 82.296 58.94 82.836 58.076C82.968 57.86 83.034 57.692 83.034 57.572C83.034 57.44 82.932 57.374 82.728 57.374C82.524 57.374 82.134 57.644 81.558 58.184C80.694 58.976 79.86 60.164 79.056 61.748C78.984 61.868 78.9 61.946 78.804 61.982C78.72 62.006 78.546 62.024 78.282 62.036C78.018 62.048 77.844 62.078 77.76 62.126C77.952 61.742 78.33 60.956 78.894 59.768C79.902 57.668 80.562 56.468 80.874 56.168C81.018 56.024 81.216 55.952 81.468 55.952C81.516 55.952 81.636 55.97 81.828 56.006C82.032 56.042 82.182 56.048 82.278 56.024C81.834 56.264 81.108 57.392 80.1 59.408C80.664 58.712 81.174 58.16 81.63 57.752C82.098 57.332 82.656 56.948 83.304 56.6C83.952 56.24 84.426 56.06 84.726 56.06C84.798 56.06 84.864 56.072 84.924 56.096ZM84.0053 67.688C82.8773 67.688 82.3133 67.226 82.3133 66.302C82.3133 65.534 82.8353 64.844 83.8793 64.232C84.7673 63.716 85.9013 63.23 87.2813 62.774C87.9173 62.57 88.3793 62.408 88.6673 62.288C88.9793 61.376 89.1353 60.38 89.1353 59.3C89.1353 59.084 89.1233 58.922 89.0993 58.814C88.7633 59.498 88.3013 60.2 87.7133 60.92C87.0173 61.784 86.3273 62.12 85.6433 61.928C85.0193 61.664 84.7073 61.148 84.7073 60.38C84.7073 59.348 85.2233 58.214 86.2553 56.978C86.8193 56.306 87.4793 55.88 88.2353 55.7C88.4393 55.64 88.6433 55.61 88.8473 55.61C89.3873 55.61 89.9153 55.79 90.4313 56.15C90.6233 56.306 90.7193 56.438 90.7193 56.546C90.7193 56.654 90.6833 56.762 90.6113 56.87C90.5393 56.966 90.4613 56.978 90.3773 56.906C90.3053 56.822 90.2573 56.744 90.2333 56.672C90.0773 56.228 89.8253 56.006 89.4773 56.006C88.8413 56.006 88.1273 56.45 87.3353 57.338C86.8913 57.842 86.5073 58.382 86.1833 58.958C85.7873 59.678 85.5893 60.236 85.5893 60.632C85.5893 61.016 85.7093 61.274 85.9493 61.406C86.0333 61.442 86.1173 61.46 86.2013 61.46C86.4773 61.46 86.8193 61.274 87.2273 60.902C87.6473 60.518 88.0313 60.038 88.3793 59.462C88.7393 58.874 88.9673 58.418 89.0633 58.094C89.1593 57.77 89.2733 57.566 89.4053 57.482C89.5493 57.398 89.7053 57.35 89.8733 57.338C90.0413 57.326 90.1553 57.296 90.2153 57.248C90.3113 57.788 90.3593 58.424 90.3593 59.156C90.3593 59.876 90.2333 60.698 89.9813 61.622C90.5333 61.226 90.9233 60.872 91.1513 60.56C91.3913 60.248 91.5773 59.966 91.7093 59.714C91.8533 59.462 91.9793 59.216 92.0873 58.976C92.1953 58.724 92.2673 58.562 92.3033 58.49C92.3393 58.418 92.3993 58.376 92.4833 58.364C92.5673 58.34 92.6093 58.376 92.6093 58.472C92.6093 58.532 92.5913 58.604 92.5553 58.688C92.0273 59.78 91.5833 60.572 91.2233 61.064C90.8753 61.544 90.3953 61.928 89.7833 62.216C89.4953 63.032 89.0753 63.842 88.5233 64.646C87.9833 65.45 87.2993 66.158 86.4713 66.77C85.6433 67.382 84.8213 67.688 84.0053 67.688ZM82.6913 66.644C82.6913 67.1 82.9853 67.328 83.5733 67.328C83.9213 67.328 84.3113 67.226 84.7433 67.022C85.1873 66.818 85.5533 66.608 85.8413 66.392C86.3333 65.996 86.8733 65.408 87.4613 64.628C87.9053 64.004 88.2473 63.398 88.4873 62.81L87.8573 63.026C85.9853 63.674 84.6653 64.25 83.8973 64.754C83.3333 65.126 82.9613 65.6 82.7813 66.176C82.7213 66.356 82.6913 66.512 82.6913 66.644Z" fill="#3D3D3D"/>
</svg>
