<svg class='services__icon' viewBox="0 0 132 132" fill="none" xmlns="http://www.w3.org/2000/svg">
<path d="M131 66C131 101.899 101.899 131 66 131C30.1015 131 1 101.899 1 66C1 30.1015 30.1015 1 66 1C101.899 1 131 30.1015 131 66Z" stroke="#435B97" stroke-width="2"/>
<path d="M101.556 40.1586H72.746L69.1219 34.9489C69.7743 34.3581 70.2069 33.6208 70.3668 32.8272C70.5266 32.0336 70.4068 31.2181 70.022 30.4807C69.6371 29.7433 69.004 29.1159 68.2001 28.6753C67.3961 28.2347 66.4562 28 65.4955 28C64.5348 28 63.595 28.2347 62.791 28.6753C61.9871 29.1159 61.3539 29.7433 60.9691 30.4807C60.5842 31.2181 60.4644 32.0336 60.6243 32.8272C60.7841 33.6208 61.2168 34.3581 61.8692 34.9489L58.2465 40.1598H47.0115C46.6278 40.1598 46.2599 40.2875 45.9886 40.5148C45.7174 40.742 45.5649 41.0502 45.5649 41.3716C45.5649 41.693 45.7174 42.0012 45.9886 42.2285C46.2599 42.4558 46.6278 42.5834 47.0115 42.5834H98.0673L93.2451 46.6232H37.7564L32.9327 42.5834H41.2284C41.6122 42.5834 41.9803 42.4557 42.2517 42.2283C42.5231 42.001 42.6756 41.6926 42.6756 41.371C42.6756 41.0495 42.5231 40.7411 42.2517 40.5137C41.9803 40.2863 41.6122 40.1586 41.2284 40.1586H29.4413C29.0602 40.1638 28.6965 40.2931 28.4274 40.5193C28.1583 40.7454 28.005 41.0505 28 41.3698V101.788C28.0025 102.047 28.1032 102.299 28.2877 102.507C28.4722 102.715 28.7309 102.869 29.0265 102.946C29.1623 102.982 29.3036 103 29.4458 103H82.7367C83.1204 103 83.4883 102.872 83.7596 102.645C84.0309 102.418 84.1832 102.11 84.1832 101.788C84.1832 101.467 84.0309 101.159 83.7596 100.931C83.4883 100.704 83.1204 100.576 82.7367 100.576H32.9282L37.7519 96.5354H93.2406L98.0629 100.576H88.5138C88.1302 100.576 87.7623 100.704 87.491 100.931C87.2197 101.159 87.0673 101.467 87.0673 101.788C87.0673 102.11 87.2197 102.418 87.491 102.645C87.7623 102.872 88.1302 103 88.5138 103H101.559C101.92 102.995 102.266 102.88 102.532 102.675C102.798 102.47 102.964 102.191 103 101.89C103 101.856 103 101.821 103 101.788V41.371C102.997 41.0508 102.843 40.7445 102.573 40.5178C102.303 40.2911 101.938 40.1622 101.556 40.1586V40.1586ZM65.4963 30.4279C65.9012 30.4276 66.2971 30.528 66.634 30.7163C66.9708 30.9046 67.2334 31.1723 67.3886 31.4857C67.5437 31.799 67.5845 32.1438 67.5057 32.4766C67.4269 32.8093 67.232 33.115 66.9458 33.355C66.6596 33.5949 66.2948 33.7584 65.8977 33.8247C65.5005 33.8909 65.0889 33.857 64.7147 33.7273C64.3406 33.5975 64.0208 33.3777 63.7958 33.0957C63.5708 32.8136 63.4507 32.482 63.4507 32.1428C63.4511 31.6883 63.6667 31.2525 64.0502 30.931C64.4336 30.6095 64.9538 30.4285 65.4963 30.4279V30.4279ZM61.5946 40.1586L64.3683 36.1701C65.1101 36.3167 65.8824 36.3167 66.6242 36.1701L69.3979 40.1586H61.5946ZM35.7004 72.5193V94.8217L30.8781 98.8627V44.2958L35.7004 48.3369V72.5193ZM51.6353 94.0805L51.6114 94.1118H38.5949V73.2004C39.9853 72.5016 41.4698 71.9435 43.0173 71.5381H43.0427C44.3856 71.1933 45.7815 71.0152 47.1861 71.0093C49.0128 71.0237 50.8201 71.3251 52.5141 71.898L52.6051 71.9293C56.6187 73.2754 60.8307 76.1215 65.4948 80.605C59.8751 84.3 55.169 88.8772 51.6398 94.0805H51.6353ZM43.2695 68.9707C42.8137 68.2504 42.5764 67.4473 42.5786 66.6321C42.578 65.4986 43.0356 64.3984 43.8769 63.5107C44.7182 62.623 45.8936 62.0002 47.2115 61.7438C48.5294 61.4873 49.9121 61.6124 51.1343 62.0986C52.3566 62.5847 53.3462 63.4033 53.942 64.421C54.034 64.5774 54.1653 64.7153 54.3268 64.8253C54.4882 64.9354 54.6762 65.015 54.8777 65.0586C55.0793 65.1023 55.2896 65.109 55.4946 65.0783C55.6995 65.0477 55.8941 64.9803 56.0651 64.8809C56.8053 64.4501 57.6854 64.2198 58.5867 64.221C59.4917 64.223 60.3745 64.456 61.1174 64.889C61.8603 65.322 62.428 65.9344 62.7449 66.6446C62.823 66.8213 62.9492 66.9804 63.1134 67.1091C63.2777 67.2378 63.4756 67.3326 63.6913 67.386C63.907 67.4394 64.1346 67.4499 64.356 67.4166C64.5774 67.3834 64.7864 67.3074 64.9666 67.1945C65.4744 66.8756 66.0925 66.704 66.7272 66.7058C67.5093 66.7065 68.2591 66.967 68.8121 67.4303C69.3651 67.8936 69.6761 68.5218 69.6769 69.1769C69.6776 69.3449 69.6576 69.5124 69.6173 69.6769H53.6958C50.3913 68.5486 46.7519 68.302 43.2739 68.9707H43.2695ZM92.3887 79.2201C90.4594 77.9231 88.2408 76.9615 85.8625 76.3915C85.4963 76.3118 85.1074 76.3553 84.7791 76.5128C84.4508 76.6703 84.2091 76.9293 84.1059 77.2343C84.0028 77.5392 84.0462 77.8659 84.227 78.1443C84.4078 78.4227 84.7115 78.6308 85.0732 78.7239C87.8646 79.4121 90.3877 80.7092 92.3842 82.4824V94.1068H55.0103C55.0998 93.9818 55.1893 93.8693 55.2803 93.7505L55.3743 93.6255C58.6888 89.0746 63.0433 85.1166 68.1879 81.9787L68.2192 81.9612C71.6095 79.8801 75.6065 78.6029 79.7899 78.2639C79.9795 78.2537 80.1649 78.2124 80.3353 78.1422C80.5058 78.072 80.6581 77.9744 80.7836 77.8549C80.909 77.7354 81.0052 77.5964 81.0665 77.4458C81.1278 77.2952 81.1531 77.1359 81.141 76.9771C81.1288 76.8183 81.0795 76.6631 80.9957 76.5202C80.9119 76.3774 80.7954 76.2498 80.6528 76.1447C80.5101 76.0396 80.3442 75.9591 80.1644 75.9077C79.9846 75.8563 79.7945 75.8351 79.6049 75.8453C75.4302 76.1384 71.4084 77.2983 67.9029 79.2201C65.2438 76.5523 62.2133 74.1604 58.8761 72.0955H70.6259C72.1865 72.0955 72.576 70.1481 72.576 69.1744C72.575 68.3869 72.3474 67.6111 71.9126 66.9129C71.4778 66.2146 70.8485 65.6145 70.0781 65.1632C69.3077 64.7119 68.4187 64.4228 67.4866 64.3203C66.5545 64.2179 65.6067 64.3051 64.7234 64.5747C63.7876 63.3749 62.3802 62.4873 60.7451 62.0656C59.1101 61.6439 57.3504 61.7149 55.7712 62.2661C54.4805 60.7694 52.5715 59.7281 50.4154 59.3448C48.2593 58.9615 46.0101 59.2634 44.105 60.1919C42.1998 61.1205 40.7748 62.6092 40.107 64.3689C39.4391 66.1286 39.5761 68.0334 40.4913 69.7131C39.8647 69.9248 39.2345 70.1656 38.6009 70.4356V49.0468H92.3976V79.2214L92.3887 79.2201ZM100.105 98.8602L95.2832 94.8205V48.3356L100.105 44.2946V98.8602Z" fill="#435B97"/>
<path d="M81.8045 53.47C80.3326 53.47 78.8937 53.8356 77.6699 54.5208C76.446 55.206 75.4921 56.1798 74.9288 57.3192C74.3655 58.4586 74.2181 59.7123 74.5053 60.9219C74.7925 62.1314 75.5012 63.2425 76.542 64.1145C77.5829 64.9866 78.909 65.5804 80.3526 65.821C81.7963 66.0616 83.2926 65.9381 84.6525 65.4662C86.0124 64.9942 87.1747 64.195 87.9925 63.1696C88.8103 62.1442 89.2467 60.9386 89.2467 59.7054C89.2444 58.0522 88.4595 56.4674 87.0643 55.2984C85.6692 54.1295 83.7776 53.472 81.8045 53.47ZM81.8045 63.5169C80.9048 63.5169 80.0252 63.2934 79.2771 62.8745C78.529 62.4557 77.9459 61.8605 77.6016 61.164C77.2573 60.4675 77.1672 59.7012 77.3427 58.9618C77.5183 58.2224 77.9515 57.5433 78.5877 57.0103C79.224 56.4772 80.0345 56.1142 80.917 55.9671C81.7994 55.82 82.7142 55.8955 83.5454 56.184C84.3767 56.4725 85.0872 56.961 85.587 57.5878C86.0869 58.2146 86.3537 58.9515 86.3537 59.7054C86.3525 60.7159 85.8728 61.6848 85.02 62.3994C84.1671 63.114 83.0107 63.5159 81.8045 63.5169Z" fill="#435B97"/>
</svg>
